<svg width="100" height="29" viewBox="0 0 100 29" fill="none" xmlns="http://www.w3.org/2000/svg">
<path d="M4.963 2.32V9.208C4.963 9.348 4.984 9.43433 5.026 9.467C5.07267 9.49967 5.166 9.516 5.306 9.516H6.454C6.55667 9.516 6.629 9.53 6.671 9.558C6.71767 9.58133 6.741 9.64433 6.741 9.747V10.685C6.741 10.825 6.72 10.9137 6.678 10.951C6.64067 10.9837 6.552 11 6.412 11H0.882C0.742 11 0.651 10.979 0.609 10.937C0.571667 10.8903 0.553 10.7947 0.553 10.65V9.817C0.553 9.68167 0.578667 9.59767 0.63 9.565C0.681333 9.53233 0.779333 9.516 0.924 9.516H1.827C1.95767 9.516 2.051 9.49733 2.107 9.46C2.16767 9.42267 2.198 9.32933 2.198 9.18V2.327C2.198 2.19167 2.184 2.10067 2.156 2.054C2.128 2.00733 2.04633 1.984 1.911 1.984H0.889C0.758333 1.984 0.669667 1.96767 0.623 1.935C0.576333 1.90233 0.553 1.81833 0.553 1.683V0.842999C0.553 0.693666 0.569333 0.600333 0.602 0.563C0.634667 0.520999 0.723333 0.499999 0.868 0.499999H6.398C6.552 0.499999 6.64767 0.523332 6.685 0.569999C6.72233 0.611999 6.741 0.705333 6.741 0.85V1.634C6.741 1.788 6.71767 1.886 6.671 1.928C6.629 1.96533 6.53567 1.984 6.391 1.984H5.285C5.145 1.984 5.05633 2.005 5.019 2.047C4.98167 2.089 4.963 2.18 4.963 2.32ZM8.81278 2.089H8.00078C7.88411 2.089 7.80478 2.075 7.76278 2.047C7.72545 2.01433 7.70678 1.94433 7.70678 1.837V0.912999C7.70678 0.731 7.73011 0.616666 7.77678 0.569999C7.82345 0.523332 7.93311 0.499999 8.10578 0.499999H11.0948C11.3561 0.499999 11.5404 0.520999 11.6478 0.563C11.7551 0.600333 11.8648 0.684333 11.9768 0.815L16.6948 6.24C16.8021 6.36133 16.8861 6.41267 16.9468 6.394C17.0121 6.37067 17.0448 6.20733 17.0448 5.904V2.376C17.0448 2.25933 17.0284 2.18233 16.9958 2.145C16.9678 2.10767 16.8978 2.089 16.7858 2.089H15.8688C15.7288 2.089 15.6331 2.068 15.5818 2.026C15.5304 1.984 15.5048 1.893 15.5048 1.753V0.871C15.5048 0.707666 15.5304 0.604999 15.5818 0.563C15.6378 0.520999 15.7428 0.499999 15.8968 0.499999H19.8588C19.9521 0.499999 20.0221 0.513999 20.0688 0.541999C20.1154 0.565333 20.1388 0.628333 20.1388 0.730999V1.683C20.1388 1.865 20.1154 1.97933 20.0688 2.026C20.0221 2.068 19.9054 2.089 19.7188 2.089H18.9908C18.8554 2.089 18.7668 2.11467 18.7248 2.166C18.6874 2.21267 18.6688 2.30367 18.6688 2.439V10.902C18.6688 11.0187 18.6501 11.0957 18.6128 11.133C18.5801 11.1703 18.5031 11.189 18.3818 11.189H17.6328C17.4508 11.189 17.3224 11.1633 17.2478 11.112C17.1731 11.0653 17.0961 10.9953 17.0168 10.902L11.1508 3.972C11.0388 3.83667 10.9524 3.79233 10.8918 3.839C10.8358 3.881 10.8078 4.06767 10.8078 4.399V9.047C10.8078 9.201 10.8264 9.30133 10.8638 9.348C10.9011 9.39 10.9968 9.411 11.1508 9.411H12.1728C12.2708 9.411 12.3361 9.42967 12.3688 9.467C12.4014 9.50433 12.4178 9.57667 12.4178 9.684V10.671C12.4178 10.8297 12.3781 10.9253 12.2988 10.958C12.2241 10.986 12.1144 11 11.9698 11H8.12678C7.94945 11 7.83511 10.979 7.78378 10.937C7.73245 10.895 7.70678 10.783 7.70678 10.601V9.74C7.70678 9.57667 7.73478 9.481 7.79078 9.453C7.84678 9.425 7.95178 9.411 8.10578 9.411H8.81278C8.97611 9.411 9.07645 9.38767 9.11378 9.341C9.15578 9.29433 9.17678 9.18933 9.17678 9.026V2.446C9.17678 2.26867 9.15811 2.166 9.12078 2.138C9.08811 2.10533 8.98545 2.089 8.81278 2.089ZM27.7911 7.864L30.1081 2.425C30.1688 2.285 30.1851 2.194 30.1571 2.152C30.1291 2.11 30.0194 2.089 29.8281 2.089H29.2751C29.1351 2.089 29.0464 2.07267 29.0091 2.04C28.9718 2.00733 28.9531 1.92567 28.9531 1.795V0.877999C28.9531 0.728666 28.9671 0.628333 28.9951 0.576999C29.0278 0.525666 29.1211 0.499999 29.2751 0.499999H32.9921C33.1368 0.499999 33.2371 0.520999 33.2931 0.563C33.3538 0.600333 33.3841 0.698333 33.3841 0.856999V1.809C33.3841 1.91633 33.3631 1.991 33.3211 2.033C33.2791 2.07033 33.2021 2.089 33.0901 2.089H32.3761C32.1941 2.089 32.0751 2.117 32.0191 2.173C31.9631 2.22433 31.9094 2.31067 31.8581 2.432L28.2391 10.783C28.1971 10.8857 28.1598 10.9673 28.1271 11.028C28.0944 11.0933 28.0431 11.14 27.9731 11.168C27.9078 11.196 27.7958 11.21 27.6371 11.21H26.2861C26.0668 11.21 25.9221 11.1867 25.8521 11.14C25.7821 11.098 25.7168 11.0047 25.6561 10.86L22.0511 2.369C21.9998 2.243 21.9508 2.166 21.9041 2.138C21.8574 2.10533 21.7408 2.089 21.5541 2.089H20.6441C20.4948 2.089 20.4038 2.06333 20.3711 2.012C20.3384 1.956 20.3221 1.85567 20.3221 1.711V0.821999C20.3221 0.667999 20.3431 0.576999 20.3851 0.549C20.4318 0.516333 20.5321 0.499999 20.6861 0.499999H26.2861C26.4074 0.499999 26.4868 0.525666 26.5241 0.576999C26.5614 0.623666 26.5801 0.712333 26.5801 0.842999V1.76C26.5801 1.90467 26.5591 1.99567 26.5171 2.033C26.4798 2.07033 26.3864 2.089 26.2371 2.089H25.3621C25.1988 2.089 25.1008 2.11467 25.0681 2.166C25.0354 2.21267 25.0424 2.29433 25.0891 2.411L27.0001 7.262C27.0794 7.45333 27.1448 7.63533 27.1961 7.808C27.2521 7.98067 27.3058 8.11367 27.3571 8.207C27.4131 8.29567 27.4738 8.32133 27.5391 8.284C27.6044 8.242 27.6884 8.102 27.7911 7.864ZM34.949 2.089H34.032C33.8967 2.089 33.8127 2.068 33.78 2.026C33.7474 1.984 33.731 1.89767 33.731 1.767V0.807999C33.731 0.663333 33.7544 0.576999 33.801 0.549C33.8524 0.516333 33.9457 0.499999 34.081 0.499999H43.671C43.8157 0.499999 43.9044 0.520999 43.937 0.563C43.9697 0.604999 43.986 0.695999 43.986 0.836V4.133C43.986 4.259 43.9767 4.336 43.958 4.364C43.944 4.392 43.8717 4.406 43.741 4.406H42.691C42.5884 4.406 42.5254 4.38267 42.502 4.336C42.4834 4.28467 42.4717 4.21467 42.467 4.126C42.453 3.62667 42.3877 3.22767 42.271 2.929C42.1544 2.63033 41.9537 2.41567 41.669 2.285C41.3844 2.15433 40.9854 2.089 40.472 2.089H38.414C38.2787 2.089 38.1807 2.10767 38.12 2.145C38.064 2.17767 38.036 2.26633 38.036 2.411V4.686C38.036 4.83533 38.05 4.93567 38.078 4.987C38.1107 5.03833 38.183 5.064 38.295 5.064H38.575C38.9857 5.064 39.3054 4.938 39.534 4.686C39.7674 4.42933 39.9097 4.126 39.961 3.776C39.975 3.67333 39.9937 3.59867 40.017 3.552C40.0404 3.50067 40.0987 3.475 40.192 3.475H40.822C40.9527 3.475 41.0344 3.49367 41.067 3.531C41.1044 3.56367 41.123 3.64533 41.123 3.776V7.647C41.123 7.76833 41.1067 7.84767 41.074 7.885C41.046 7.92233 40.9714 7.941 40.85 7.941H40.234C40.1174 7.941 40.045 7.91533 40.017 7.864C39.9937 7.808 39.9727 7.72167 39.954 7.605C39.9214 7.37633 39.842 7.16167 39.716 6.961C39.5947 6.76033 39.4384 6.59933 39.247 6.478C39.0604 6.352 38.8504 6.289 38.617 6.289H38.344C38.2414 6.289 38.1644 6.317 38.113 6.373C38.0617 6.429 38.036 6.527 38.036 6.667V9.124C38.036 9.278 38.057 9.36433 38.099 9.383C38.141 9.40167 38.239 9.411 38.393 9.411H40.332C40.9294 9.411 41.389 9.33633 41.711 9.187C42.033 9.033 42.2594 8.78567 42.39 8.445C42.5207 8.09967 42.593 7.64233 42.607 7.073C42.6117 6.91433 42.6234 6.81633 42.642 6.779C42.6654 6.737 42.754 6.716 42.908 6.716H43.853C43.993 6.716 44.0724 6.73467 44.091 6.772C44.1144 6.80467 44.126 6.88867 44.126 7.024V10.734C44.126 10.8647 44.112 10.9417 44.084 10.965C44.056 10.9883 43.9767 11 43.846 11H34.06C33.9294 11 33.8407 10.993 33.794 10.979C33.752 10.965 33.731 10.888 33.731 10.748V9.628C33.731 9.51133 33.745 9.446 33.773 9.432C33.801 9.418 33.871 9.411 33.983 9.411H34.942C35.096 9.411 35.1894 9.397 35.222 9.369C35.2547 9.33633 35.271 9.243 35.271 9.089V2.362C35.271 2.236 35.25 2.159 35.208 2.131C35.166 2.103 35.0797 2.089 34.949 2.089ZM52.5277 3.825C52.453 3.37233 52.2757 2.999 51.9957 2.705C51.7157 2.411 51.382 2.194 50.9947 2.054C50.612 1.914 50.2223 1.844 49.8257 1.844C49.2703 1.844 48.8527 1.942 48.5727 2.138C48.2973 2.32933 48.1597 2.57667 48.1597 2.88C48.1597 3.16933 48.2693 3.405 48.4887 3.587C48.7127 3.76433 49.0067 3.916 49.3707 4.042C49.7393 4.16333 50.1407 4.28233 50.5747 4.399C51.0133 4.51567 51.452 4.65333 51.8907 4.812C52.3293 4.97067 52.7307 5.176 53.0947 5.428C53.4633 5.68 53.7573 6.002 53.9767 6.394C54.2007 6.78133 54.3127 7.269 54.3127 7.857C54.3127 8.67833 54.133 9.33867 53.7737 9.838C53.4143 10.3373 52.915 10.699 52.2757 10.923C51.6363 11.147 50.9013 11.259 50.0707 11.259C49.4687 11.259 48.9483 11.1727 48.5097 11C48.0757 10.8273 47.714 10.6103 47.4247 10.349C47.2893 10.223 47.196 10.1857 47.1447 10.237C47.0933 10.2837 47.021 10.391 46.9277 10.559L46.7807 10.881C46.734 10.965 46.6803 11.0163 46.6197 11.035C46.5637 11.0583 46.4703 11.07 46.3397 11.07H45.6397C45.5137 11.07 45.4227 11.0513 45.3667 11.014C45.3153 10.9767 45.2897 10.8973 45.2897 10.776V7.346C45.2897 7.21067 45.306 7.122 45.3387 7.08C45.3713 7.038 45.4553 7.017 45.5907 7.017H46.4167C46.5613 7.017 46.6407 7.038 46.6547 7.08C46.6687 7.122 46.6827 7.206 46.6967 7.332C46.748 7.752 46.8997 8.144 47.1517 8.508C47.4037 8.872 47.7397 9.166 48.1597 9.39C48.5797 9.614 49.0673 9.726 49.6227 9.726C50.0847 9.726 50.4673 9.67 50.7707 9.558C51.074 9.446 51.298 9.28967 51.4427 9.089C51.592 8.88833 51.6667 8.662 51.6667 8.41C51.6667 8.08333 51.557 7.822 51.3377 7.626C51.1183 7.42533 50.8267 7.262 50.4627 7.136C50.0987 7.00533 49.6997 6.88633 49.2657 6.779C48.8317 6.667 48.3953 6.541 47.9567 6.401C47.5227 6.25633 47.1237 6.06733 46.7597 5.834C46.4003 5.596 46.1087 5.29033 45.8847 4.917C45.6653 4.54367 45.5557 4.07 45.5557 3.496C45.5557 2.92667 45.663 2.44133 45.8777 2.04C46.0923 1.63867 46.377 1.30967 46.7317 1.053C47.0863 0.796333 47.4853 0.609666 47.9287 0.493C48.372 0.371666 48.8223 0.311 49.2797 0.311C49.7883 0.311 50.2527 0.385666 50.6727 0.534999C51.0927 0.679666 51.4543 0.870999 51.7577 1.109C51.879 1.20233 51.9723 1.249 52.0377 1.249C52.1077 1.24433 52.187 1.165 52.2757 1.011L52.4577 0.660999C52.495 0.604999 52.5253 0.565333 52.5487 0.541999C52.572 0.513999 52.635 0.499999 52.7377 0.499999H53.6407C53.7573 0.499999 53.8367 0.520999 53.8787 0.563C53.9207 0.600333 53.9417 0.679666 53.9417 0.801V3.909C53.9417 4.05367 53.9207 4.14467 53.8787 4.182C53.8367 4.21933 53.7387 4.238 53.5847 4.238H52.9477C52.747 4.238 52.6327 4.21 52.6047 4.154C52.5813 4.098 52.5557 3.98833 52.5277 3.825ZM57.3462 10.664V9.733C57.3462 9.59767 57.3672 9.51133 57.4092 9.474C57.4512 9.432 57.5352 9.411 57.6612 9.411H58.6482C58.8302 9.411 58.9445 9.38533 58.9912 9.334C59.0425 9.278 59.0682 9.159 59.0682 8.977V2.299C59.0682 2.201 59.0495 2.131 59.0122 2.089C58.9795 2.04233 58.9119 2.019 58.8092 2.019H58.5502C58.0462 2.019 57.6542 2.08667 57.3742 2.222C57.0942 2.35733 56.8959 2.59067 56.7792 2.922C56.6625 3.25333 56.5972 3.71767 56.5832 4.315C56.5785 4.469 56.5482 4.56933 56.4922 4.616C56.4409 4.66267 56.3335 4.686 56.1702 4.686H55.4982C55.3675 4.686 55.2789 4.66733 55.2322 4.63C55.1855 4.588 55.1622 4.504 55.1622 4.378V0.898999C55.1622 0.744999 55.1762 0.64 55.2042 0.584C55.2322 0.527999 55.3232 0.499999 55.4772 0.499999H65.2492C65.3659 0.499999 65.4429 0.525666 65.4802 0.576999C65.5175 0.623666 65.5362 0.71 65.5362 0.836V4.336C65.5362 4.49467 65.5105 4.59267 65.4592 4.63C65.4125 4.66733 65.3075 4.686 65.1442 4.686H64.4932C64.3252 4.686 64.2202 4.665 64.1782 4.623C64.1362 4.57633 64.1129 4.47367 64.1082 4.315C64.0942 3.713 64.0289 3.24633 63.9122 2.915C63.7955 2.58367 63.5972 2.35267 63.3172 2.222C63.0419 2.08667 62.6522 2.019 62.1482 2.019H61.8892C61.7819 2.019 61.7095 2.04233 61.6722 2.089C61.6395 2.13567 61.6232 2.21267 61.6232 2.32V8.893C61.6232 9.103 61.6442 9.243 61.6862 9.313C61.7329 9.37833 61.8589 9.411 62.0642 9.411H62.9742C63.1329 9.411 63.2332 9.43667 63.2752 9.488C63.3219 9.53933 63.3452 9.63733 63.3452 9.782V10.636C63.3452 10.7993 63.3172 10.902 63.2612 10.944C63.2052 10.9813 63.1002 11 62.9462 11H57.7102C57.5702 11 57.4745 10.9813 57.4232 10.944C57.3719 10.9067 57.3462 10.8133 57.3462 10.664ZM71.1896 2.32V9.208C71.1896 9.348 71.2106 9.43433 71.2526 9.467C71.2992 9.49967 71.3926 9.516 71.5326 9.516H72.6806C72.7832 9.516 72.8556 9.53 72.8976 9.558C72.9442 9.58133 72.9676 9.64433 72.9676 9.747V10.685C72.9676 10.825 72.9466 10.9137 72.9046 10.951C72.8672 10.9837 72.7786 11 72.6386 11H67.1086C66.9686 11 66.8776 10.979 66.8356 10.937C66.7982 10.8903 66.7796 10.7947 66.7796 10.65V9.817C66.7796 9.68167 66.8052 9.59767 66.8566 9.565C66.9079 9.53233 67.0059 9.516 67.1506 9.516H68.0536C68.1842 9.516 68.2776 9.49733 68.3336 9.46C68.3942 9.42267 68.4246 9.32933 68.4246 9.18V2.327C68.4246 2.19167 68.4106 2.10067 68.3826 2.054C68.3546 2.00733 68.2729 1.984 68.1376 1.984H67.1156C66.9849 1.984 66.8962 1.96767 66.8496 1.935C66.8029 1.90233 66.7796 1.81833 66.7796 1.683V0.842999C66.7796 0.693666 66.7959 0.600333 66.8286 0.563C66.8612 0.520999 66.9499 0.499999 67.0946 0.499999H72.6246C72.7786 0.499999 72.8742 0.523332 72.9116 0.569999C72.9489 0.611999 72.9676 0.705333 72.9676 0.85V1.634C72.9676 1.788 72.9442 1.886 72.8976 1.928C72.8556 1.96533 72.7622 1.984 72.6176 1.984H71.5116C71.3716 1.984 71.2829 2.005 71.2456 2.047C71.2082 2.089 71.1896 2.18 71.1896 2.32ZM75.0393 2.089H74.2273C74.1107 2.089 74.0313 2.075 73.9893 2.047C73.952 2.01433 73.9333 1.94433 73.9333 1.837V0.912999C73.9333 0.731 73.9567 0.616666 74.0033 0.569999C74.05 0.523332 74.1597 0.499999 74.3323 0.499999H77.3213C77.5827 0.499999 77.767 0.520999 77.8743 0.563C77.9817 0.600333 78.0913 0.684333 78.2033 0.815L82.9213 6.24C83.0287 6.36133 83.1127 6.41267 83.1733 6.394C83.2387 6.37067 83.2713 6.20733 83.2713 5.904V2.376C83.2713 2.25933 83.255 2.18233 83.2223 2.145C83.1943 2.10767 83.1243 2.089 83.0123 2.089H82.0953C81.9553 2.089 81.8597 2.068 81.8083 2.026C81.757 1.984 81.7313 1.893 81.7313 1.753V0.871C81.7313 0.707666 81.757 0.604999 81.8083 0.563C81.8643 0.520999 81.9693 0.499999 82.1233 0.499999H86.0853C86.1787 0.499999 86.2487 0.513999 86.2953 0.541999C86.342 0.565333 86.3653 0.628333 86.3653 0.730999V1.683C86.3653 1.865 86.342 1.97933 86.2953 2.026C86.2487 2.068 86.132 2.089 85.9453 2.089H85.2173C85.082 2.089 84.9933 2.11467 84.9513 2.166C84.914 2.21267 84.8953 2.30367 84.8953 2.439V10.902C84.8953 11.0187 84.8767 11.0957 84.8393 11.133C84.8067 11.1703 84.7297 11.189 84.6083 11.189H83.8593C83.6773 11.189 83.549 11.1633 83.4743 11.112C83.3997 11.0653 83.3227 10.9953 83.2433 10.902L77.3773 3.972C77.2653 3.83667 77.179 3.79233 77.1183 3.839C77.0623 3.881 77.0343 4.06767 77.0343 4.399V9.047C77.0343 9.201 77.053 9.30133 77.0903 9.348C77.1277 9.39 77.2233 9.411 77.3773 9.411H78.3993C78.4973 9.411 78.5627 9.42967 78.5953 9.467C78.628 9.50433 78.6443 9.57667 78.6443 9.684V10.671C78.6443 10.8297 78.6047 10.9253 78.5253 10.958C78.4507 10.986 78.341 11 78.1963 11H74.3533C74.176 11 74.0617 10.979 74.0103 10.937C73.959 10.895 73.9333 10.783 73.9333 10.601V9.74C73.9333 9.57667 73.9613 9.481 74.0173 9.453C74.0733 9.425 74.1783 9.411 74.3323 9.411H75.0393C75.2027 9.411 75.303 9.38767 75.3403 9.341C75.3823 9.29433 75.4033 9.18933 75.4033 9.026V2.446C75.4033 2.26867 75.3847 2.166 75.3473 2.138C75.3147 2.10533 75.212 2.089 75.0393 2.089ZM93.1668 5.204H98.6128C98.7668 5.204 98.8625 5.22267 98.8998 5.26C98.9418 5.29733 98.9628 5.39767 98.9628 5.561V6.583C98.9628 6.695 98.9442 6.765 98.9068 6.793C98.8695 6.821 98.7925 6.835 98.6758 6.835H97.8148C97.7075 6.835 97.6375 6.849 97.6048 6.877C97.5768 6.905 97.5628 6.97267 97.5628 7.08V8.382C97.5628 8.53133 97.5512 8.63867 97.5278 8.704C97.5092 8.76933 97.4672 8.844 97.4018 8.928C97.2245 9.166 96.9842 9.42033 96.6808 9.691C96.3775 9.957 96.0182 10.209 95.6028 10.447C95.1875 10.6803 94.7162 10.8717 94.1888 11.021C93.6662 11.1703 93.0922 11.245 92.4668 11.245C91.6362 11.245 90.8708 11.1167 90.1708 10.86C89.4755 10.5987 88.8712 10.2277 88.3578 9.747C87.8445 9.26167 87.4455 8.683 87.1608 8.011C86.8808 7.33433 86.7408 6.58067 86.7408 5.75C86.7408 4.97067 86.8808 4.24733 87.1608 3.58C87.4408 2.91267 87.8328 2.33167 88.3368 1.837C88.8408 1.33767 89.4358 0.950333 90.1218 0.675C90.8078 0.395 91.5568 0.254999 92.3688 0.254999C92.9848 0.254999 93.5238 0.338999 93.9858 0.506999C94.4525 0.670333 94.8538 0.889666 95.1898 1.165C95.2878 1.24433 95.3625 1.28167 95.4138 1.277C95.4652 1.26767 95.5282 1.207 95.6028 1.095L95.8828 0.611999C95.9155 0.556 95.9528 0.516333 95.9948 0.493C96.0368 0.464999 96.0975 0.450999 96.1768 0.450999H97.0308C97.1335 0.450999 97.2058 0.464999 97.2478 0.493C97.2945 0.516333 97.3178 0.579333 97.3178 0.681999V3.79C97.3178 3.92067 97.3062 4.01867 97.2828 4.084C97.2595 4.14467 97.1802 4.175 97.0448 4.175H95.9528C95.7708 4.175 95.6635 4.15167 95.6308 4.105C95.6028 4.05833 95.5632 3.972 95.5118 3.846C95.3625 3.43533 95.1665 3.07367 94.9238 2.761C94.6858 2.44833 94.3825 2.208 94.0138 2.04C93.6452 1.86733 93.1902 1.781 92.6488 1.781C92.0888 1.781 91.5965 1.942 91.1718 2.264C90.7518 2.586 90.4228 3.04333 90.1848 3.636C89.9515 4.22867 89.8348 4.93333 89.8348 5.75C89.8348 6.56667 89.9375 7.27367 90.1428 7.871C90.3482 8.46833 90.6422 8.93267 91.0248 9.264C91.4122 9.59067 91.8812 9.754 92.4318 9.754C92.8938 9.754 93.2695 9.68867 93.5588 9.558C93.8482 9.42267 94.0768 9.25 94.2448 9.04C94.4175 8.83 94.5528 8.613 94.6508 8.389C94.6882 8.30033 94.7162 8.21633 94.7348 8.137C94.7535 8.05767 94.7628 7.95267 94.7628 7.822V7.129C94.7628 6.99833 94.7442 6.91667 94.7068 6.884C94.6742 6.85133 94.5972 6.835 94.4758 6.835H93.1108C92.9662 6.835 92.8798 6.80467 92.8518 6.744C92.8238 6.68333 92.8098 6.58533 92.8098 6.45V5.533C92.8098 5.379 92.8332 5.28567 92.8798 5.253C92.9265 5.22033 93.0222 5.204 93.1668 5.204ZM1.589 19.089H0.721C0.581 19.089 0.492333 19.0727 0.455 19.04C0.417667 19.0073 0.399 18.921 0.399 18.781V17.836C0.399 17.682 0.422333 17.5887 0.469 17.556C0.515667 17.5187 0.611333 17.5 0.756 17.5H5.985C6.61967 17.5 7.20533 17.5607 7.742 17.682C8.28333 17.7987 8.757 17.983 9.163 18.235C9.569 18.487 9.884 18.8113 10.108 19.208C10.332 19.6047 10.444 20.083 10.444 20.643C10.444 21.1983 10.332 21.6813 10.108 22.092C9.884 22.5027 9.569 22.841 9.163 23.107C8.757 23.3683 8.28333 23.5643 7.742 23.695C7.20533 23.8257 6.61967 23.891 5.985 23.891H5.047C4.88833 23.891 4.79033 23.9143 4.753 23.961C4.72033 24.003 4.704 24.1033 4.704 24.262V26.047C4.704 26.2103 4.725 26.313 4.767 26.355C4.809 26.3923 4.91167 26.411 5.075 26.411H6.16C6.3 26.411 6.38167 26.432 6.405 26.474C6.433 26.516 6.447 26.6047 6.447 26.74V27.622C6.447 27.776 6.433 27.8787 6.405 27.93C6.38167 27.9767 6.29067 28 6.132 28H0.742C0.602 28 0.508667 27.9837 0.462 27.951C0.42 27.9183 0.399 27.8273 0.399 27.678V26.719C0.399 26.5883 0.415333 26.5043 0.448 26.467C0.480667 26.4297 0.562333 26.411 0.693 26.411H1.554C1.736 26.411 1.84567 26.3853 1.883 26.334C1.92033 26.278 1.939 26.1637 1.939 25.991V19.383C1.939 19.243 1.91567 19.159 1.869 19.131C1.827 19.103 1.73367 19.089 1.589 19.089ZM5.012 22.302H5.775C6.293 22.302 6.70367 22.155 7.007 21.861C7.315 21.567 7.469 21.161 7.469 20.643C7.469 20.1203 7.315 19.7307 7.007 19.474C6.70367 19.2173 6.293 19.089 5.775 19.089H4.942C4.83 19.089 4.76233 19.11 4.739 19.152C4.71567 19.194 4.704 19.2733 4.704 19.39V21.994C4.704 22.1293 4.72033 22.2157 4.753 22.253C4.79033 22.2857 4.87667 22.302 5.012 22.302ZM11.3541 22.75C11.3541 21.952 11.4824 21.2193 11.7391 20.552C11.9958 19.8847 12.3668 19.3037 12.8521 18.809C13.3421 18.3143 13.9371 17.9317 14.6371 17.661C15.3371 17.3903 16.1281 17.255 17.0101 17.255C17.8921 17.255 18.6808 17.3903 19.3761 17.661C20.0761 17.9317 20.6688 18.3143 21.1541 18.809C21.6441 19.3037 22.0174 19.8847 22.2741 20.552C22.5308 21.2193 22.6591 21.952 22.6591 22.75C22.6591 23.548 22.5238 24.2807 22.2531 24.948C21.9871 25.6153 21.6044 26.1963 21.1051 26.691C20.6058 27.1857 20.0108 27.5683 19.3201 27.839C18.6294 28.1097 17.8594 28.245 17.0101 28.245C16.1281 28.245 15.3371 28.1097 14.6371 27.839C13.9371 27.5683 13.3421 27.1857 12.8521 26.691C12.3668 26.1963 11.9958 25.6153 11.7391 24.948C11.4824 24.2807 11.3541 23.548 11.3541 22.75ZM14.4481 22.75C14.4481 23.3333 14.4948 23.87 14.5881 24.36C14.6861 24.8453 14.8378 25.2653 15.0431 25.62C15.2484 25.97 15.5144 26.243 15.8411 26.439C16.1678 26.6303 16.5574 26.726 17.0101 26.726C17.5001 26.726 17.9084 26.6303 18.2351 26.439C18.5664 26.243 18.8278 25.97 19.0191 25.62C19.2151 25.2653 19.3551 24.8453 19.4391 24.36C19.5231 23.87 19.5651 23.3333 19.5651 22.75C19.5651 22.162 19.5161 21.6253 19.4181 21.14C19.3248 20.6547 19.1754 20.237 18.9701 19.887C18.7648 19.5323 18.5011 19.2593 18.1791 19.068C17.8571 18.872 17.4674 18.774 17.0101 18.774C16.5574 18.774 16.1678 18.872 15.8411 19.068C15.5144 19.2593 15.2484 19.5323 15.0431 19.887C14.8378 20.237 14.6861 20.6547 14.5881 21.14C14.4948 21.6253 14.4481 22.162 14.4481 22.75ZM35.6041 26.551C35.3147 27.0457 34.9531 27.4517 34.5191 27.769C34.0897 28.0863 33.5274 28.245 32.8321 28.245C32.3234 28.245 31.9197 28.1587 31.6211 27.986C31.3271 27.8133 31.1054 27.5893 30.9561 27.314C30.8067 27.034 30.6971 26.726 30.6271 26.39C30.5617 26.054 30.5011 25.718 30.4451 25.382C30.3937 25.046 30.3167 24.7403 30.2141 24.465C30.1161 24.185 29.9597 23.9587 29.7451 23.786C29.5351 23.6133 29.2317 23.527 28.8351 23.527H27.9391C27.7991 23.527 27.7174 23.5503 27.6941 23.597C27.6707 23.639 27.6591 23.73 27.6591 23.87V26.138C27.6591 26.2453 27.6707 26.3177 27.6941 26.355C27.7221 26.3923 27.7897 26.411 27.8971 26.411H28.9051C29.0217 26.411 29.0987 26.4297 29.1361 26.467C29.1781 26.5043 29.1991 26.586 29.1991 26.712V27.58C29.1991 27.7527 29.1804 27.867 29.1431 27.923C29.1057 27.9743 29.0007 28 28.8281 28H23.6271C23.5197 28 23.4474 27.986 23.4101 27.958C23.3727 27.9253 23.3541 27.8553 23.3541 27.748V26.698C23.3541 26.5767 23.3704 26.4997 23.4031 26.467C23.4404 26.4297 23.5174 26.411 23.6341 26.411H24.5091C24.6677 26.411 24.7704 26.3923 24.8171 26.355C24.8684 26.313 24.8941 26.215 24.8941 26.061V19.439C24.8941 19.2803 24.8684 19.1823 24.8171 19.145C24.7704 19.1077 24.6724 19.089 24.5231 19.089H23.6551C23.5151 19.089 23.4287 19.0657 23.3961 19.019C23.3681 18.9677 23.3541 18.8743 23.3541 18.739V17.759C23.3541 17.647 23.3727 17.577 23.4101 17.549C23.4474 17.5163 23.5221 17.5 23.6341 17.5H29.5001C30.5127 17.5 31.3364 17.6143 31.9711 17.843C32.6104 18.0717 33.0771 18.3937 33.3711 18.809C33.6697 19.2197 33.8191 19.7003 33.8191 20.251C33.8191 20.8157 33.6954 21.2917 33.4481 21.679C33.2007 22.0617 32.7761 22.3603 32.1741 22.575C32.0107 22.6357 31.9127 22.6963 31.8801 22.757C31.8474 22.813 31.9174 22.89 32.0901 22.988C32.3934 23.1513 32.6221 23.3427 32.7761 23.562C32.9347 23.7813 33.0491 24.0123 33.1191 24.255C33.1891 24.4977 33.2357 24.7357 33.2591 24.969C33.2824 25.1977 33.3057 25.4077 33.3291 25.599C33.3571 25.7857 33.4037 25.935 33.4691 26.047C33.5391 26.159 33.6581 26.215 33.8261 26.215C33.9427 26.215 34.0571 26.1707 34.1691 26.082C34.2857 25.9887 34.3907 25.8673 34.4841 25.718C34.5447 25.6153 34.5984 25.5593 34.6451 25.55C34.6917 25.5407 34.7664 25.5733 34.8691 25.648L35.4921 26.082C35.6041 26.1613 35.6671 26.2337 35.6811 26.299C35.6951 26.3597 35.6694 26.4437 35.6041 26.551ZM28.0091 21.973H29.5001C29.7847 21.973 30.0391 21.917 30.2631 21.805C30.4871 21.6883 30.6621 21.525 30.7881 21.315C30.9187 21.1003 30.9841 20.8483 30.9841 20.559C30.9841 20.265 30.9187 20.0083 30.7881 19.789C30.6621 19.5697 30.4871 19.3993 30.2631 19.278C30.0391 19.152 29.7847 19.089 29.5001 19.089H27.9601C27.8201 19.089 27.7337 19.11 27.7011 19.152C27.6731 19.1893 27.6591 19.2803 27.6591 19.425V21.644C27.6591 21.812 27.6754 21.91 27.7081 21.938C27.7454 21.9613 27.8457 21.973 28.0091 21.973ZM38.2056 27.664V26.733C38.2056 26.5977 38.2266 26.5113 38.2686 26.474C38.3106 26.432 38.3946 26.411 38.5206 26.411H39.5076C39.6896 26.411 39.8039 26.3853 39.8506 26.334C39.9019 26.278 39.9276 26.159 39.9276 25.977V19.299C39.9276 19.201 39.9089 19.131 39.8716 19.089C39.8389 19.0423 39.7712 19.019 39.6686 19.019H39.4096C38.9056 19.019 38.5136 19.0867 38.2336 19.222C37.9536 19.3573 37.7552 19.5907 37.6386 19.922C37.5219 20.2533 37.4566 20.7177 37.4426 21.315C37.4379 21.469 37.4076 21.5693 37.3516 21.616C37.3002 21.6627 37.1929 21.686 37.0296 21.686H36.3576C36.2269 21.686 36.1382 21.6673 36.0916 21.63C36.0449 21.588 36.0216 21.504 36.0216 21.378V17.899C36.0216 17.745 36.0356 17.64 36.0636 17.584C36.0916 17.528 36.1826 17.5 36.3366 17.5H46.1086C46.2252 17.5 46.3022 17.5257 46.3396 17.577C46.3769 17.6237 46.3956 17.71 46.3956 17.836V21.336C46.3956 21.4947 46.3699 21.5927 46.3186 21.63C46.2719 21.6673 46.1669 21.686 46.0036 21.686H45.3526C45.1846 21.686 45.0796 21.665 45.0376 21.623C44.9956 21.5763 44.9722 21.4737 44.9676 21.315C44.9536 20.713 44.8882 20.2463 44.7716 19.915C44.6549 19.5837 44.4566 19.3527 44.1766 19.222C43.9012 19.0867 43.5116 19.019 43.0076 19.019H42.7486C42.6412 19.019 42.5689 19.0423 42.5316 19.089C42.4989 19.1357 42.4826 19.2127 42.4826 19.32V25.893C42.4826 26.103 42.5036 26.243 42.5456 26.313C42.5922 26.3783 42.7182 26.411 42.9236 26.411H43.8336C43.9922 26.411 44.0926 26.4367 44.1346 26.488C44.1812 26.5393 44.2046 26.6373 44.2046 26.782V27.636C44.2046 27.7993 44.1766 27.902 44.1206 27.944C44.0646 27.9813 43.9596 28 43.8056 28H38.5696C38.4296 28 38.3339 27.9813 38.2826 27.944C38.2312 27.9067 38.2056 27.8133 38.2056 27.664ZM48.7869 19.089H47.6529C47.5783 19.089 47.5316 19.075 47.5129 19.047C47.4943 19.019 47.4849 18.9653 47.4849 18.886V17.668C47.4849 17.5887 47.4989 17.542 47.5269 17.528C47.5549 17.5093 47.6086 17.5 47.6879 17.5H57.3759C57.4739 17.5 57.5346 17.5163 57.5579 17.549C57.5859 17.5817 57.5999 17.6517 57.5999 17.759V21.308C57.5999 21.4013 57.5836 21.4573 57.5509 21.476C57.5183 21.4947 57.4576 21.504 57.3689 21.504H56.3539C56.2466 21.504 56.1743 21.4947 56.1369 21.476C56.1043 21.4527 56.0856 21.3873 56.0809 21.28C56.0763 20.762 56.0156 20.342 55.8989 20.02C55.7823 19.698 55.5816 19.4623 55.2969 19.313C55.0123 19.1637 54.6086 19.089 54.0859 19.089H52.0699C51.9626 19.089 51.8879 19.103 51.8459 19.131C51.8086 19.159 51.7899 19.2243 51.7899 19.327V22.071C51.7899 22.127 51.7969 22.1667 51.8109 22.19C51.8296 22.2087 51.8623 22.218 51.9089 22.218H52.2029C52.6089 22.218 52.9449 22.0873 53.2109 21.826C53.4769 21.56 53.6263 21.224 53.6589 20.818C53.6683 20.7527 53.6729 20.7083 53.6729 20.685C53.6776 20.6617 53.7173 20.65 53.7919 20.65H54.6389C54.7136 20.65 54.7603 20.664 54.7789 20.692C54.8023 20.7153 54.8139 20.7667 54.8139 20.846V24.976C54.8139 25.0553 54.8023 25.109 54.7789 25.137C54.7556 25.165 54.6996 25.179 54.6109 25.179H53.9039C53.8106 25.179 53.7499 25.1697 53.7219 25.151C53.6939 25.1323 53.6753 25.081 53.6659 24.997C53.6286 24.577 53.4746 24.2293 53.2039 23.954C52.9379 23.6787 52.6089 23.541 52.2169 23.541H51.9089C51.8529 23.541 51.8179 23.555 51.8039 23.583C51.7946 23.6063 51.7899 23.6367 51.7899 23.674V26.096C51.7899 26.2267 51.8063 26.313 51.8389 26.355C51.8763 26.3923 51.9626 26.411 52.0979 26.411H53.3299C53.4419 26.411 53.5096 26.4203 53.5329 26.439C53.5563 26.4577 53.5679 26.523 53.5679 26.635V27.706C53.5679 27.832 53.5493 27.9137 53.5119 27.951C53.4793 27.9837 53.3976 28 53.2669 28H47.7369C47.6343 28 47.5666 27.9907 47.5339 27.972C47.5013 27.9487 47.4849 27.8857 47.4849 27.783V26.593C47.4849 26.5043 47.5013 26.453 47.5339 26.439C47.5713 26.4203 47.6366 26.411 47.7299 26.411H48.7519C48.8779 26.411 48.9549 26.3923 48.9829 26.355C49.0109 26.3177 49.0249 26.236 49.0249 26.11V19.327C49.0249 19.2243 49.0086 19.159 48.9759 19.131C48.9433 19.103 48.8803 19.089 48.7869 19.089ZM58.5494 22.75C58.5494 21.952 58.6778 21.2193 58.9344 20.552C59.1911 19.8847 59.5621 19.3037 60.0474 18.809C60.5374 18.3143 61.1324 17.9317 61.8324 17.661C62.5324 17.3903 63.3234 17.255 64.2054 17.255C65.0874 17.255 65.8761 17.3903 66.5714 17.661C67.2714 17.9317 67.8641 18.3143 68.3494 18.809C68.8394 19.3037 69.2128 19.8847 69.4694 20.552C69.7261 21.2193 69.8544 21.952 69.8544 22.75C69.8544 23.548 69.7191 24.2807 69.4484 24.948C69.1824 25.6153 68.7998 26.1963 68.3004 26.691C67.8011 27.1857 67.2061 27.5683 66.5154 27.839C65.8248 28.1097 65.0548 28.245 64.2054 28.245C63.3234 28.245 62.5324 28.1097 61.8324 27.839C61.1324 27.5683 60.5374 27.1857 60.0474 26.691C59.5621 26.1963 59.1911 25.6153 58.9344 24.948C58.6778 24.2807 58.5494 23.548 58.5494 22.75ZM61.6434 22.75C61.6434 23.3333 61.6901 23.87 61.7834 24.36C61.8814 24.8453 62.0331 25.2653 62.2384 25.62C62.4438 25.97 62.7098 26.243 63.0364 26.439C63.3631 26.6303 63.7528 26.726 64.2054 26.726C64.6954 26.726 65.1038 26.6303 65.4304 26.439C65.7618 26.243 66.0231 25.97 66.2144 25.62C66.4104 25.2653 66.5504 24.8453 66.6344 24.36C66.7184 23.87 66.7604 23.3333 66.7604 22.75C66.7604 22.162 66.7114 21.6253 66.6134 21.14C66.5201 20.6547 66.3708 20.237 66.1654 19.887C65.9601 19.5323 65.6964 19.2593 65.3744 19.068C65.0524 18.872 64.6628 18.774 64.2054 18.774C63.7528 18.774 63.3631 18.872 63.0364 19.068C62.7098 19.2593 62.4438 19.5323 62.2384 19.887C62.0331 20.237 61.8814 20.6547 61.7834 21.14C61.6901 21.6253 61.6434 22.162 61.6434 22.75ZM71.7884 19.089H70.7874C70.6847 19.089 70.6194 19.0727 70.5914 19.04C70.5634 19.0073 70.5494 18.9373 70.5494 18.83V17.829C70.5494 17.689 70.5634 17.6003 70.5914 17.563C70.6241 17.521 70.7104 17.5 70.8504 17.5H76.2684C76.3991 17.5 76.4854 17.5163 76.5274 17.549C76.5741 17.5817 76.5974 17.668 76.5974 17.808V18.781C76.5974 18.921 76.5741 19.0073 76.5274 19.04C76.4807 19.0727 76.3921 19.089 76.2614 19.089H75.1834C75.0527 19.089 74.9641 19.103 74.9174 19.131C74.8754 19.159 74.8544 19.2383 74.8544 19.369V26.061C74.8544 26.2103 74.8707 26.306 74.9034 26.348C74.9407 26.39 75.0341 26.411 75.1834 26.411H76.5694C77.1201 26.411 77.5727 26.3317 77.9274 26.173C78.2867 26.0097 78.5574 25.739 78.7394 25.361C78.9261 24.9783 79.0287 24.4533 79.0474 23.786C79.0521 23.6647 79.0637 23.5877 79.0824 23.555C79.1011 23.5223 79.1734 23.506 79.2994 23.506H80.1884C80.3004 23.506 80.3751 23.52 80.4124 23.548C80.4497 23.5713 80.4684 23.6367 80.4684 23.744V27.65C80.4684 27.7947 80.4521 27.8903 80.4194 27.937C80.3914 27.979 80.3051 28 80.1604 28H70.8574C70.7267 28 70.6427 27.9837 70.6054 27.951C70.5681 27.9137 70.5494 27.825 70.5494 27.685V26.656C70.5494 26.5627 70.5587 26.4997 70.5774 26.467C70.6007 26.4297 70.6567 26.411 70.7454 26.411H71.7254C71.8747 26.411 71.9727 26.3923 72.0194 26.355C72.0661 26.313 72.0894 26.215 72.0894 26.061V19.418C72.0894 19.2827 72.0731 19.194 72.0404 19.152C72.0077 19.11 71.9237 19.089 71.7884 19.089ZM85.8321 19.32V26.208C85.8321 26.348 85.8531 26.4343 85.8951 26.467C85.9418 26.4997 86.0351 26.516 86.1751 26.516H87.3231C87.4258 26.516 87.4981 26.53 87.5401 26.558C87.5868 26.5813 87.6101 26.6443 87.6101 26.747V27.685C87.6101 27.825 87.5891 27.9137 87.5471 27.951C87.5098 27.9837 87.4211 28 87.2811 28H81.7511C81.6111 28 81.5201 27.979 81.4781 27.937C81.4408 27.8903 81.4221 27.7947 81.4221 27.65V26.817C81.4221 26.6817 81.4478 26.5977 81.4991 26.565C81.5505 26.5323 81.6485 26.516 81.7931 26.516H82.6961C82.8268 26.516 82.9201 26.4973 82.9761 26.46C83.0368 26.4227 83.0671 26.3293 83.0671 26.18V19.327C83.0671 19.1917 83.0531 19.1007 83.0251 19.054C82.9971 19.0073 82.9155 18.984 82.7801 18.984H81.7581C81.6275 18.984 81.5388 18.9677 81.4921 18.935C81.4455 18.9023 81.4221 18.8183 81.4221 18.683V17.843C81.4221 17.6937 81.4385 17.6003 81.4711 17.563C81.5038 17.521 81.5925 17.5 81.7371 17.5H87.2671C87.4211 17.5 87.5168 17.5233 87.5541 17.57C87.5915 17.612 87.6101 17.7053 87.6101 17.85V18.634C87.6101 18.788 87.5868 18.886 87.5401 18.928C87.4981 18.9653 87.4048 18.984 87.2601 18.984H86.1541C86.0141 18.984 85.9255 19.005 85.8881 19.047C85.8508 19.089 85.8321 19.18 85.8321 19.32ZM88.3131 22.75C88.3131 21.952 88.4414 21.2193 88.6981 20.552C88.9548 19.8847 89.3258 19.3037 89.8111 18.809C90.3011 18.3143 90.8961 17.9317 91.5961 17.661C92.2961 17.3903 93.0871 17.255 93.9691 17.255C94.8511 17.255 95.6398 17.3903 96.3351 17.661C97.0351 17.9317 97.6278 18.3143 98.1131 18.809C98.6031 19.3037 98.9764 19.8847 99.2331 20.552C99.4898 21.2193 99.6181 21.952 99.6181 22.75C99.6181 23.548 99.4828 24.2807 99.2121 24.948C98.9461 25.6153 98.5634 26.1963 98.0641 26.691C97.5648 27.1857 96.9698 27.5683 96.2791 27.839C95.5884 28.1097 94.8184 28.245 93.9691 28.245C93.0871 28.245 92.2961 28.1097 91.5961 27.839C90.8961 27.5683 90.3011 27.1857 89.8111 26.691C89.3258 26.1963 88.9548 25.6153 88.6981 24.948C88.4414 24.2807 88.3131 23.548 88.3131 22.75ZM91.4071 22.75C91.4071 23.3333 91.4538 23.87 91.5471 24.36C91.6451 24.8453 91.7968 25.2653 92.0021 25.62C92.2074 25.97 92.4734 26.243 92.8001 26.439C93.1268 26.6303 93.5164 26.726 93.9691 26.726C94.4591 26.726 94.8674 26.6303 95.1941 26.439C95.5254 26.243 95.7868 25.97 95.9781 25.62C96.1741 25.2653 96.3141 24.8453 96.3981 24.36C96.4821 23.87 96.5241 23.3333 96.5241 22.75C96.5241 22.162 96.4751 21.6253 96.3771 21.14C96.2838 20.6547 96.1344 20.237 95.9291 19.887C95.7238 19.5323 95.4601 19.2593 95.1381 19.068C94.8161 18.872 94.4264 18.774 93.9691 18.774C93.5164 18.774 93.1268 18.872 92.8001 19.068C92.4734 19.2593 92.2074 19.5323 92.0021 19.887C91.7968 20.237 91.6451 20.6547 91.5471 21.14C91.4538 21.6253 91.4071 22.162 91.4071 22.75Z" fill="white"/>
</svg>
