<svg width="187" height="65" viewBox="0 0 187 65" fill="none" xmlns="http://www.w3.org/2000/svg">
<path d="M90.963 21.32V28.208C90.963 28.348 90.984 28.4343 91.026 28.467C91.0727 28.4997 91.166 28.516 91.306 28.516H92.454C92.5567 28.516 92.629 28.53 92.671 28.558C92.7177 28.5813 92.741 28.6443 92.741 28.747V29.685C92.741 29.825 92.72 29.9137 92.678 29.951C92.6407 29.9837 92.552 30 92.412 30H86.882C86.742 30 86.651 29.979 86.609 29.937C86.5717 29.8903 86.553 29.7947 86.553 29.65V28.817C86.553 28.6817 86.5787 28.5977 86.63 28.565C86.6813 28.5323 86.7793 28.516 86.924 28.516H87.827C87.9577 28.516 88.051 28.4973 88.107 28.46C88.1677 28.4227 88.198 28.3293 88.198 28.18V21.327C88.198 21.1917 88.184 21.1007 88.156 21.054C88.128 21.0073 88.0463 20.984 87.911 20.984H86.889C86.7583 20.984 86.6697 20.9677 86.623 20.935C86.5763 20.9023 86.553 20.8183 86.553 20.683V19.843C86.553 19.6937 86.5693 19.6003 86.602 19.563C86.6347 19.521 86.7233 19.5 86.868 19.5H92.398C92.552 19.5 92.6477 19.5233 92.685 19.57C92.7223 19.612 92.741 19.7053 92.741 19.85V20.634C92.741 20.788 92.7177 20.886 92.671 20.928C92.629 20.9653 92.5357 20.984 92.391 20.984H91.285C91.145 20.984 91.0563 21.005 91.019 21.047C90.9817 21.089 90.963 21.18 90.963 21.32ZM94.8128 21.089H94.0008C93.8841 21.089 93.8048 21.075 93.7628 21.047C93.7254 21.0143 93.7068 20.9443 93.7068 20.837V19.913C93.7068 19.731 93.7301 19.6167 93.7768 19.57C93.8234 19.5233 93.9331 19.5 94.1058 19.5H97.0948C97.3561 19.5 97.5404 19.521 97.6478 19.563C97.7551 19.6003 97.8648 19.6843 97.9768 19.815L102.695 25.24C102.802 25.3613 102.886 25.4127 102.947 25.394C103.012 25.3707 103.045 25.2073 103.045 24.904V21.376C103.045 21.2593 103.028 21.1823 102.996 21.145C102.968 21.1077 102.898 21.089 102.786 21.089H101.869C101.729 21.089 101.633 21.068 101.582 21.026C101.53 20.984 101.505 20.893 101.505 20.753V19.871C101.505 19.7077 101.53 19.605 101.582 19.563C101.638 19.521 101.743 19.5 101.897 19.5H105.859C105.952 19.5 106.022 19.514 106.069 19.542C106.115 19.5653 106.139 19.6283 106.139 19.731V20.683C106.139 20.865 106.115 20.9793 106.069 21.026C106.022 21.068 105.905 21.089 105.719 21.089H104.991C104.855 21.089 104.767 21.1147 104.725 21.166C104.687 21.2127 104.669 21.3037 104.669 21.439V29.902C104.669 30.0187 104.65 30.0957 104.613 30.133C104.58 30.1703 104.503 30.189 104.382 30.189H103.633C103.451 30.189 103.322 30.1633 103.248 30.112C103.173 30.0653 103.096 29.9953 103.017 29.902L97.1508 22.972C97.0388 22.8367 96.9524 22.7923 96.8918 22.839C96.8358 22.881 96.8078 23.0677 96.8078 23.399V28.047C96.8078 28.201 96.8264 28.3013 96.8638 28.348C96.9011 28.39 96.9968 28.411 97.1508 28.411H98.1728C98.2708 28.411 98.3361 28.4297 98.3688 28.467C98.4014 28.5043 98.4178 28.5767 98.4178 28.684V29.671C98.4178 29.8297 98.3781 29.9253 98.2988 29.958C98.2241 29.986 98.1144 30 97.9698 30H94.1268C93.9494 30 93.8351 29.979 93.7838 29.937C93.7324 29.895 93.7068 29.783 93.7068 29.601V28.74C93.7068 28.5767 93.7348 28.481 93.7908 28.453C93.8468 28.425 93.9518 28.411 94.1058 28.411H94.8128C94.9761 28.411 95.0764 28.3877 95.1138 28.341C95.1558 28.2943 95.1768 28.1893 95.1768 28.026V21.446C95.1768 21.2687 95.1581 21.166 95.1208 21.138C95.0881 21.1053 94.9854 21.089 94.8128 21.089ZM113.791 26.864L116.108 21.425C116.169 21.285 116.185 21.194 116.157 21.152C116.129 21.11 116.019 21.089 115.828 21.089H115.275C115.135 21.089 115.046 21.0727 115.009 21.04C114.972 21.0073 114.953 20.9257 114.953 20.795V19.878C114.953 19.7287 114.967 19.6283 114.995 19.577C115.028 19.5257 115.121 19.5 115.275 19.5H118.992C119.137 19.5 119.237 19.521 119.293 19.563C119.354 19.6003 119.384 19.6983 119.384 19.857V20.809C119.384 20.9163 119.363 20.991 119.321 21.033C119.279 21.0703 119.202 21.089 119.09 21.089H118.376C118.194 21.089 118.075 21.117 118.019 21.173C117.963 21.2243 117.909 21.3107 117.858 21.432L114.239 29.783C114.197 29.8857 114.16 29.9673 114.127 30.028C114.094 30.0933 114.043 30.14 113.973 30.168C113.908 30.196 113.796 30.21 113.637 30.21H112.286C112.067 30.21 111.922 30.1867 111.852 30.14C111.782 30.098 111.717 30.0047 111.656 29.86L108.051 21.369C108 21.243 107.951 21.166 107.904 21.138C107.857 21.1053 107.741 21.089 107.554 21.089H106.644C106.495 21.089 106.404 21.0633 106.371 21.012C106.338 20.956 106.322 20.8557 106.322 20.711V19.822C106.322 19.668 106.343 19.577 106.385 19.549C106.432 19.5163 106.532 19.5 106.686 19.5H112.286C112.407 19.5 112.487 19.5257 112.524 19.577C112.561 19.6237 112.58 19.7123 112.58 19.843V20.76C112.58 20.9047 112.559 20.9957 112.517 21.033C112.48 21.0703 112.386 21.089 112.237 21.089H111.362C111.199 21.089 111.101 21.1147 111.068 21.166C111.035 21.2127 111.042 21.2943 111.089 21.411L113 26.262C113.079 26.4533 113.145 26.6353 113.196 26.808C113.252 26.9807 113.306 27.1137 113.357 27.207C113.413 27.2957 113.474 27.3213 113.539 27.284C113.604 27.242 113.688 27.102 113.791 26.864ZM120.949 21.089H120.032C119.897 21.089 119.813 21.068 119.78 21.026C119.747 20.984 119.731 20.8977 119.731 20.767V19.808C119.731 19.6633 119.754 19.577 119.801 19.549C119.852 19.5163 119.946 19.5 120.081 19.5H129.671C129.816 19.5 129.904 19.521 129.937 19.563C129.97 19.605 129.986 19.696 129.986 19.836V23.133C129.986 23.259 129.977 23.336 129.958 23.364C129.944 23.392 129.872 23.406 129.741 23.406H128.691C128.588 23.406 128.525 23.3827 128.502 23.336C128.483 23.2847 128.472 23.2147 128.467 23.126C128.453 22.6267 128.388 22.2277 128.271 21.929C128.154 21.6303 127.954 21.4157 127.669 21.285C127.384 21.1543 126.985 21.089 126.472 21.089H124.414C124.279 21.089 124.181 21.1077 124.12 21.145C124.064 21.1777 124.036 21.2663 124.036 21.411V23.686C124.036 23.8353 124.05 23.9357 124.078 23.987C124.111 24.0383 124.183 24.064 124.295 24.064H124.575C124.986 24.064 125.305 23.938 125.534 23.686C125.767 23.4293 125.91 23.126 125.961 22.776C125.975 22.6733 125.994 22.5987 126.017 22.552C126.04 22.5007 126.099 22.475 126.192 22.475H126.822C126.953 22.475 127.034 22.4937 127.067 22.531C127.104 22.5637 127.123 22.6453 127.123 22.776V26.647C127.123 26.7683 127.107 26.8477 127.074 26.885C127.046 26.9223 126.971 26.941 126.85 26.941H126.234C126.117 26.941 126.045 26.9153 126.017 26.864C125.994 26.808 125.973 26.7217 125.954 26.605C125.921 26.3763 125.842 26.1617 125.716 25.961C125.595 25.7603 125.438 25.5993 125.247 25.478C125.06 25.352 124.85 25.289 124.617 25.289H124.344C124.241 25.289 124.164 25.317 124.113 25.373C124.062 25.429 124.036 25.527 124.036 25.667V28.124C124.036 28.278 124.057 28.3643 124.099 28.383C124.141 28.4017 124.239 28.411 124.393 28.411H126.332C126.929 28.411 127.389 28.3363 127.711 28.187C128.033 28.033 128.259 27.7857 128.39 27.445C128.521 27.0997 128.593 26.6423 128.607 26.073C128.612 25.9143 128.623 25.8163 128.642 25.779C128.665 25.737 128.754 25.716 128.908 25.716H129.853C129.993 25.716 130.072 25.7347 130.091 25.772C130.114 25.8047 130.126 25.8887 130.126 26.024V29.734C130.126 29.8647 130.112 29.9417 130.084 29.965C130.056 29.9883 129.977 30 129.846 30H120.06C119.929 30 119.841 29.993 119.794 29.979C119.752 29.965 119.731 29.888 119.731 29.748V28.628C119.731 28.5113 119.745 28.446 119.773 28.432C119.801 28.418 119.871 28.411 119.983 28.411H120.942C121.096 28.411 121.189 28.397 121.222 28.369C121.255 28.3363 121.271 28.243 121.271 28.089V21.362C121.271 21.236 121.25 21.159 121.208 21.131C121.166 21.103 121.08 21.089 120.949 21.089ZM138.528 22.825C138.453 22.3723 138.276 21.999 137.996 21.705C137.716 21.411 137.382 21.194 136.995 21.054C136.612 20.914 136.222 20.844 135.826 20.844C135.27 20.844 134.853 20.942 134.573 21.138C134.297 21.3293 134.16 21.5767 134.16 21.88C134.16 22.1693 134.269 22.405 134.489 22.587C134.713 22.7643 135.007 22.916 135.371 23.042C135.739 23.1633 136.141 23.2823 136.575 23.399C137.013 23.5157 137.452 23.6533 137.891 23.812C138.329 23.9707 138.731 24.176 139.095 24.428C139.463 24.68 139.757 25.002 139.977 25.394C140.201 25.7813 140.313 26.269 140.313 26.857C140.313 27.6783 140.133 28.3387 139.774 28.838C139.414 29.3373 138.915 29.699 138.276 29.923C137.636 30.147 136.901 30.259 136.071 30.259C135.469 30.259 134.948 30.1727 134.51 30C134.076 29.8273 133.714 29.6103 133.425 29.349C133.289 29.223 133.196 29.1857 133.145 29.237C133.093 29.2837 133.021 29.391 132.928 29.559L132.781 29.881C132.734 29.965 132.68 30.0163 132.62 30.035C132.564 30.0583 132.47 30.07 132.34 30.07H131.64C131.514 30.07 131.423 30.0513 131.367 30.014C131.315 29.9767 131.29 29.8973 131.29 29.776V26.346C131.29 26.2107 131.306 26.122 131.339 26.08C131.371 26.038 131.455 26.017 131.591 26.017H132.417C132.561 26.017 132.641 26.038 132.655 26.08C132.669 26.122 132.683 26.206 132.697 26.332C132.748 26.752 132.9 27.144 133.152 27.508C133.404 27.872 133.74 28.166 134.16 28.39C134.58 28.614 135.067 28.726 135.623 28.726C136.085 28.726 136.467 28.67 136.771 28.558C137.074 28.446 137.298 28.2897 137.443 28.089C137.592 27.8883 137.667 27.662 137.667 27.41C137.667 27.0833 137.557 26.822 137.338 26.626C137.118 26.4253 136.827 26.262 136.463 26.136C136.099 26.0053 135.7 25.8863 135.266 25.779C134.832 25.667 134.395 25.541 133.957 25.401C133.523 25.2563 133.124 25.0673 132.76 24.834C132.4 24.596 132.109 24.2903 131.885 23.917C131.665 23.5437 131.556 23.07 131.556 22.496C131.556 21.9267 131.663 21.4413 131.878 21.04C132.092 20.6387 132.377 20.3097 132.732 20.053C133.086 19.7963 133.485 19.6097 133.929 19.493C134.372 19.3717 134.822 19.311 135.28 19.311C135.788 19.311 136.253 19.3857 136.673 19.535C137.093 19.6797 137.454 19.871 137.758 20.109C137.879 20.2023 137.972 20.249 138.038 20.249C138.108 20.2443 138.187 20.165 138.276 20.011L138.458 19.661C138.495 19.605 138.525 19.5653 138.549 19.542C138.572 19.514 138.635 19.5 138.738 19.5H139.641C139.757 19.5 139.837 19.521 139.879 19.563C139.921 19.6003 139.942 19.6797 139.942 19.801V22.909C139.942 23.0537 139.921 23.1447 139.879 23.182C139.837 23.2193 139.739 23.238 139.585 23.238H138.948C138.747 23.238 138.633 23.21 138.605 23.154C138.581 23.098 138.556 22.9883 138.528 22.825ZM143.346 29.664V28.733C143.346 28.5977 143.367 28.5113 143.409 28.474C143.451 28.432 143.535 28.411 143.661 28.411H144.648C144.83 28.411 144.945 28.3853 144.991 28.334C145.043 28.278 145.068 28.159 145.068 27.977V21.299C145.068 21.201 145.05 21.131 145.012 21.089C144.98 21.0423 144.912 21.019 144.809 21.019H144.55C144.046 21.019 143.654 21.0867 143.374 21.222C143.094 21.3573 142.896 21.5907 142.779 21.922C142.663 22.2533 142.597 22.7177 142.583 23.315C142.579 23.469 142.548 23.5693 142.492 23.616C142.441 23.6627 142.334 23.686 142.17 23.686H141.498C141.368 23.686 141.279 23.6673 141.232 23.63C141.186 23.588 141.162 23.504 141.162 23.378V19.899C141.162 19.745 141.176 19.64 141.204 19.584C141.232 19.528 141.323 19.5 141.477 19.5H151.249C151.366 19.5 151.443 19.5257 151.48 19.577C151.518 19.6237 151.536 19.71 151.536 19.836V23.336C151.536 23.4947 151.511 23.5927 151.459 23.63C151.413 23.6673 151.308 23.686 151.144 23.686H150.493C150.325 23.686 150.22 23.665 150.178 23.623C150.136 23.5763 150.113 23.4737 150.108 23.315C150.094 22.713 150.029 22.2463 149.912 21.915C149.796 21.5837 149.597 21.3527 149.317 21.222C149.042 21.0867 148.652 21.019 148.148 21.019H147.889C147.782 21.019 147.71 21.0423 147.672 21.089C147.64 21.1357 147.623 21.2127 147.623 21.32V27.893C147.623 28.103 147.644 28.243 147.686 28.313C147.733 28.3783 147.859 28.411 148.064 28.411H148.974C149.133 28.411 149.233 28.4367 149.275 28.488C149.322 28.5393 149.345 28.6373 149.345 28.782V29.636C149.345 29.7993 149.317 29.902 149.261 29.944C149.205 29.9813 149.1 30 148.946 30H143.71C143.57 30 143.475 29.9813 143.423 29.944C143.372 29.9067 143.346 29.8133 143.346 29.664ZM157.19 21.32V28.208C157.19 28.348 157.211 28.4343 157.253 28.467C157.299 28.4997 157.393 28.516 157.533 28.516H158.681C158.783 28.516 158.856 28.53 158.898 28.558C158.944 28.5813 158.968 28.6443 158.968 28.747V29.685C158.968 29.825 158.947 29.9137 158.905 29.951C158.867 29.9837 158.779 30 158.639 30H153.109C152.969 30 152.878 29.979 152.836 29.937C152.798 29.8903 152.78 29.7947 152.78 29.65V28.817C152.78 28.6817 152.805 28.5977 152.857 28.565C152.908 28.5323 153.006 28.516 153.151 28.516H154.054C154.184 28.516 154.278 28.4973 154.334 28.46C154.394 28.4227 154.425 28.3293 154.425 28.18V21.327C154.425 21.1917 154.411 21.1007 154.383 21.054C154.355 21.0073 154.273 20.984 154.138 20.984H153.116C152.985 20.984 152.896 20.9677 152.85 20.935C152.803 20.9023 152.78 20.8183 152.78 20.683V19.843C152.78 19.6937 152.796 19.6003 152.829 19.563C152.861 19.521 152.95 19.5 153.095 19.5H158.625C158.779 19.5 158.874 19.5233 158.912 19.57C158.949 19.612 158.968 19.7053 158.968 19.85V20.634C158.968 20.788 158.944 20.886 158.898 20.928C158.856 20.9653 158.762 20.984 158.618 20.984H157.512C157.372 20.984 157.283 21.005 157.246 21.047C157.208 21.089 157.19 21.18 157.19 21.32ZM161.039 21.089H160.227C160.111 21.089 160.031 21.075 159.989 21.047C159.952 21.0143 159.933 20.9443 159.933 20.837V19.913C159.933 19.731 159.957 19.6167 160.003 19.57C160.05 19.5233 160.16 19.5 160.332 19.5H163.321C163.583 19.5 163.767 19.521 163.874 19.563C163.982 19.6003 164.091 19.6843 164.203 19.815L168.921 25.24C169.029 25.3613 169.113 25.4127 169.173 25.394C169.239 25.3707 169.271 25.2073 169.271 24.904V21.376C169.271 21.2593 169.255 21.1823 169.222 21.145C169.194 21.1077 169.124 21.089 169.012 21.089H168.095C167.955 21.089 167.86 21.068 167.808 21.026C167.757 20.984 167.731 20.893 167.731 20.753V19.871C167.731 19.7077 167.757 19.605 167.808 19.563C167.864 19.521 167.969 19.5 168.123 19.5H172.085C172.179 19.5 172.249 19.514 172.295 19.542C172.342 19.5653 172.365 19.6283 172.365 19.731V20.683C172.365 20.865 172.342 20.9793 172.295 21.026C172.249 21.068 172.132 21.089 171.945 21.089H171.217C171.082 21.089 170.993 21.1147 170.951 21.166C170.914 21.2127 170.895 21.3037 170.895 21.439V29.902C170.895 30.0187 170.877 30.0957 170.839 30.133C170.807 30.1703 170.73 30.189 170.608 30.189H169.859C169.677 30.189 169.549 30.1633 169.474 30.112C169.4 30.0653 169.323 29.9953 169.243 29.902L163.377 22.972C163.265 22.8367 163.179 22.7923 163.118 22.839C163.062 22.881 163.034 23.0677 163.034 23.399V28.047C163.034 28.201 163.053 28.3013 163.09 28.348C163.128 28.39 163.223 28.411 163.377 28.411H164.399C164.497 28.411 164.563 28.4297 164.595 28.467C164.628 28.5043 164.644 28.5767 164.644 28.684V29.671C164.644 29.8297 164.605 29.9253 164.525 29.958C164.451 29.986 164.341 30 164.196 30H160.353C160.176 30 160.062 29.979 160.01 29.937C159.959 29.895 159.933 29.783 159.933 29.601V28.74C159.933 28.5767 159.961 28.481 160.017 28.453C160.073 28.425 160.178 28.411 160.332 28.411H161.039C161.203 28.411 161.303 28.3877 161.34 28.341C161.382 28.2943 161.403 28.1893 161.403 28.026V21.446C161.403 21.2687 161.385 21.166 161.347 21.138C161.315 21.1053 161.212 21.089 161.039 21.089ZM179.167 24.204H184.613C184.767 24.204 184.862 24.2227 184.9 24.26C184.942 24.2973 184.963 24.3977 184.963 24.561V25.583C184.963 25.695 184.944 25.765 184.907 25.793C184.869 25.821 184.792 25.835 184.676 25.835H183.815C183.707 25.835 183.637 25.849 183.605 25.877C183.577 25.905 183.563 25.9727 183.563 26.08V27.382C183.563 27.5313 183.551 27.6387 183.528 27.704C183.509 27.7693 183.467 27.844 183.402 27.928C183.224 28.166 182.984 28.4203 182.681 28.691C182.377 28.957 182.018 29.209 181.603 29.447C181.187 29.6803 180.716 29.8717 180.189 30.021C179.666 30.1703 179.092 30.245 178.467 30.245C177.636 30.245 176.871 30.1167 176.171 29.86C175.475 29.5987 174.871 29.2277 174.358 28.747C173.844 28.2617 173.445 27.683 173.161 27.011C172.881 26.3343 172.741 25.5807 172.741 24.75C172.741 23.9707 172.881 23.2473 173.161 22.58C173.441 21.9127 173.833 21.3317 174.337 20.837C174.841 20.3377 175.436 19.9503 176.122 19.675C176.808 19.395 177.557 19.255 178.369 19.255C178.985 19.255 179.524 19.339 179.986 19.507C180.452 19.6703 180.854 19.8897 181.19 20.165C181.288 20.2443 181.362 20.2817 181.414 20.277C181.465 20.2677 181.528 20.207 181.603 20.095L181.883 19.612C181.915 19.556 181.953 19.5163 181.995 19.493C182.037 19.465 182.097 19.451 182.177 19.451H183.031C183.133 19.451 183.206 19.465 183.248 19.493C183.294 19.5163 183.318 19.5793 183.318 19.682V22.79C183.318 22.9207 183.306 23.0187 183.283 23.084C183.259 23.1447 183.18 23.175 183.045 23.175H181.953C181.771 23.175 181.663 23.1517 181.631 23.105C181.603 23.0583 181.563 22.972 181.512 22.846C181.362 22.4353 181.166 22.0737 180.924 21.761C180.686 21.4483 180.382 21.208 180.014 21.04C179.645 20.8673 179.19 20.781 178.649 20.781C178.089 20.781 177.596 20.942 177.172 21.264C176.752 21.586 176.423 22.0433 176.185 22.636C175.951 23.2287 175.835 23.9333 175.835 24.75C175.835 25.5667 175.937 26.2737 176.143 26.871C176.348 27.4683 176.642 27.9327 177.025 28.264C177.412 28.5907 177.881 28.754 178.432 28.754C178.894 28.754 179.269 28.6887 179.559 28.558C179.848 28.4227 180.077 28.25 180.245 28.04C180.417 27.83 180.553 27.613 180.651 27.389C180.688 27.3003 180.716 27.2163 180.735 27.137C180.753 27.0577 180.763 26.9527 180.763 26.822V26.129C180.763 25.9983 180.744 25.9167 180.707 25.884C180.674 25.8513 180.597 25.835 180.476 25.835H179.111C178.966 25.835 178.88 25.8047 178.852 25.744C178.824 25.6833 178.81 25.5853 178.81 25.45V24.533C178.81 24.379 178.833 24.2857 178.88 24.253C178.926 24.2203 179.022 24.204 179.167 24.204ZM87.589 38.089H86.721C86.581 38.089 86.4923 38.0727 86.455 38.04C86.4177 38.0073 86.399 37.921 86.399 37.781V36.836C86.399 36.682 86.4223 36.5887 86.469 36.556C86.5157 36.5187 86.6113 36.5 86.756 36.5H91.985C92.6197 36.5 93.2053 36.5607 93.742 36.682C94.2833 36.7987 94.757 36.983 95.163 37.235C95.569 37.487 95.884 37.8113 96.108 38.208C96.332 38.6047 96.444 39.083 96.444 39.643C96.444 40.1983 96.332 40.6813 96.108 41.092C95.884 41.5027 95.569 41.841 95.163 42.107C94.757 42.3683 94.2833 42.5643 93.742 42.695C93.2053 42.8257 92.6197 42.891 91.985 42.891H91.047C90.8883 42.891 90.7903 42.9143 90.753 42.961C90.7203 43.003 90.704 43.1033 90.704 43.262V45.047C90.704 45.2103 90.725 45.313 90.767 45.355C90.809 45.3923 90.9117 45.411 91.075 45.411H92.16C92.3 45.411 92.3817 45.432 92.405 45.474C92.433 45.516 92.447 45.6047 92.447 45.74V46.622C92.447 46.776 92.433 46.8787 92.405 46.93C92.3817 46.9767 92.2907 47 92.132 47H86.742C86.602 47 86.5087 46.9837 86.462 46.951C86.42 46.9183 86.399 46.8273 86.399 46.678V45.719C86.399 45.5883 86.4153 45.5043 86.448 45.467C86.4807 45.4297 86.5623 45.411 86.693 45.411H87.554C87.736 45.411 87.8457 45.3853 87.883 45.334C87.9203 45.278 87.939 45.1637 87.939 44.991V38.383C87.939 38.243 87.9157 38.159 87.869 38.131C87.827 38.103 87.7337 38.089 87.589 38.089ZM91.012 41.302H91.775C92.293 41.302 92.7037 41.155 93.007 40.861C93.315 40.567 93.469 40.161 93.469 39.643C93.469 39.1203 93.315 38.7307 93.007 38.474C92.7037 38.2173 92.293 38.089 91.775 38.089H90.942C90.83 38.089 90.7623 38.11 90.739 38.152C90.7157 38.194 90.704 38.2733 90.704 38.39V40.994C90.704 41.1293 90.7203 41.2157 90.753 41.253C90.7903 41.2857 90.8767 41.302 91.012 41.302ZM97.3541 41.75C97.3541 40.952 97.4824 40.2193 97.7391 39.552C97.9958 38.8847 98.3668 38.3037 98.8521 37.809C99.3421 37.3143 99.9371 36.9317 100.637 36.661C101.337 36.3903 102.128 36.255 103.01 36.255C103.892 36.255 104.681 36.3903 105.376 36.661C106.076 36.9317 106.669 37.3143 107.154 37.809C107.644 38.3037 108.017 38.8847 108.274 39.552C108.531 40.2193 108.659 40.952 108.659 41.75C108.659 42.548 108.524 43.2807 108.253 43.948C107.987 44.6153 107.604 45.1963 107.105 45.691C106.606 46.1857 106.011 46.5683 105.32 46.839C104.629 47.1097 103.859 47.245 103.01 47.245C102.128 47.245 101.337 47.1097 100.637 46.839C99.9371 46.5683 99.3421 46.1857 98.8521 45.691C98.3668 45.1963 97.9958 44.6153 97.7391 43.948C97.4824 43.2807 97.3541 42.548 97.3541 41.75ZM100.448 41.75C100.448 42.3333 100.495 42.87 100.588 43.36C100.686 43.8453 100.838 44.2653 101.043 44.62C101.248 44.97 101.514 45.243 101.841 45.439C102.168 45.6303 102.557 45.726 103.01 45.726C103.5 45.726 103.908 45.6303 104.235 45.439C104.566 45.243 104.828 44.97 105.019 44.62C105.215 44.2653 105.355 43.8453 105.439 43.36C105.523 42.87 105.565 42.3333 105.565 41.75C105.565 41.162 105.516 40.6253 105.418 40.14C105.325 39.6547 105.175 39.237 104.97 38.887C104.765 38.5323 104.501 38.2593 104.179 38.068C103.857 37.872 103.467 37.774 103.01 37.774C102.557 37.774 102.168 37.872 101.841 38.068C101.514 38.2593 101.248 38.5323 101.043 38.887C100.838 39.237 100.686 39.6547 100.588 40.14C100.495 40.6253 100.448 41.162 100.448 41.75ZM121.604 45.551C121.315 46.0457 120.953 46.4517 120.519 46.769C120.09 47.0863 119.527 47.245 118.832 47.245C118.323 47.245 117.92 47.1587 117.621 46.986C117.327 46.8133 117.105 46.5893 116.956 46.314C116.807 46.034 116.697 45.726 116.627 45.39C116.562 45.054 116.501 44.718 116.445 44.382C116.394 44.046 116.317 43.7403 116.214 43.465C116.116 43.185 115.96 42.9587 115.745 42.786C115.535 42.6133 115.232 42.527 114.835 42.527H113.939C113.799 42.527 113.717 42.5503 113.694 42.597C113.671 42.639 113.659 42.73 113.659 42.87V45.138C113.659 45.2453 113.671 45.3177 113.694 45.355C113.722 45.3923 113.79 45.411 113.897 45.411H114.905C115.022 45.411 115.099 45.4297 115.136 45.467C115.178 45.5043 115.199 45.586 115.199 45.712V46.58C115.199 46.7527 115.18 46.867 115.143 46.923C115.106 46.9743 115.001 47 114.828 47H109.627C109.52 47 109.447 46.986 109.41 46.958C109.373 46.9253 109.354 46.8553 109.354 46.748V45.698C109.354 45.5767 109.37 45.4997 109.403 45.467C109.44 45.4297 109.517 45.411 109.634 45.411H110.509C110.668 45.411 110.77 45.3923 110.817 45.355C110.868 45.313 110.894 45.215 110.894 45.061V38.439C110.894 38.2803 110.868 38.1823 110.817 38.145C110.77 38.1077 110.672 38.089 110.523 38.089H109.655C109.515 38.089 109.429 38.0657 109.396 38.019C109.368 37.9677 109.354 37.8743 109.354 37.739V36.759C109.354 36.647 109.373 36.577 109.41 36.549C109.447 36.5163 109.522 36.5 109.634 36.5H115.5C116.513 36.5 117.336 36.6143 117.971 36.843C118.61 37.0717 119.077 37.3937 119.371 37.809C119.67 38.2197 119.819 38.7003 119.819 39.251C119.819 39.8157 119.695 40.2917 119.448 40.679C119.201 41.0617 118.776 41.3603 118.174 41.575C118.011 41.6357 117.913 41.6963 117.88 41.757C117.847 41.813 117.917 41.89 118.09 41.988C118.393 42.1513 118.622 42.3427 118.776 42.562C118.935 42.7813 119.049 43.0123 119.119 43.255C119.189 43.4977 119.236 43.7357 119.259 43.969C119.282 44.1977 119.306 44.4077 119.329 44.599C119.357 44.7857 119.404 44.935 119.469 45.047C119.539 45.159 119.658 45.215 119.826 45.215C119.943 45.215 120.057 45.1707 120.169 45.082C120.286 44.9887 120.391 44.8673 120.484 44.718C120.545 44.6153 120.598 44.5593 120.645 44.55C120.692 44.5407 120.766 44.5733 120.869 44.648L121.492 45.082C121.604 45.1613 121.667 45.2337 121.681 45.299C121.695 45.3597 121.669 45.4437 121.604 45.551ZM114.009 40.973H115.5C115.785 40.973 116.039 40.917 116.263 40.805C116.487 40.6883 116.662 40.525 116.788 40.315C116.919 40.1003 116.984 39.8483 116.984 39.559C116.984 39.265 116.919 39.0083 116.788 38.789C116.662 38.5697 116.487 38.3993 116.263 38.278C116.039 38.152 115.785 38.089 115.5 38.089H113.96C113.82 38.089 113.734 38.11 113.701 38.152C113.673 38.1893 113.659 38.2803 113.659 38.425V40.644C113.659 40.812 113.675 40.91 113.708 40.938C113.745 40.9613 113.846 40.973 114.009 40.973ZM124.206 46.664V45.733C124.206 45.5977 124.227 45.5113 124.269 45.474C124.311 45.432 124.395 45.411 124.521 45.411H125.508C125.69 45.411 125.804 45.3853 125.851 45.334C125.902 45.278 125.928 45.159 125.928 44.977V38.299C125.928 38.201 125.909 38.131 125.872 38.089C125.839 38.0423 125.771 38.019 125.669 38.019H125.41C124.906 38.019 124.514 38.0867 124.234 38.222C123.954 38.3573 123.755 38.5907 123.639 38.922C123.522 39.2533 123.457 39.7177 123.443 40.315C123.438 40.469 123.408 40.5693 123.352 40.616C123.3 40.6627 123.193 40.686 123.03 40.686H122.358C122.227 40.686 122.138 40.6673 122.092 40.63C122.045 40.588 122.022 40.504 122.022 40.378V36.899C122.022 36.745 122.036 36.64 122.064 36.584C122.092 36.528 122.183 36.5 122.337 36.5H132.109C132.225 36.5 132.302 36.5257 132.34 36.577C132.377 36.6237 132.396 36.71 132.396 36.836V40.336C132.396 40.4947 132.37 40.5927 132.319 40.63C132.272 40.6673 132.167 40.686 132.004 40.686H131.353C131.185 40.686 131.08 40.665 131.038 40.623C130.996 40.5763 130.972 40.4737 130.968 40.315C130.954 39.713 130.888 39.2463 130.772 38.915C130.655 38.5837 130.457 38.3527 130.177 38.222C129.901 38.0867 129.512 38.019 129.008 38.019H128.749C128.641 38.019 128.569 38.0423 128.532 38.089C128.499 38.1357 128.483 38.2127 128.483 38.32V44.893C128.483 45.103 128.504 45.243 128.546 45.313C128.592 45.3783 128.718 45.411 128.924 45.411H129.834C129.992 45.411 130.093 45.4367 130.135 45.488C130.181 45.5393 130.205 45.6373 130.205 45.782V46.636C130.205 46.7993 130.177 46.902 130.121 46.944C130.065 46.9813 129.96 47 129.806 47H124.57C124.43 47 124.334 46.9813 124.283 46.944C124.231 46.9067 124.206 46.8133 124.206 46.664ZM134.787 38.089H133.653C133.578 38.089 133.532 38.075 133.513 38.047C133.494 38.019 133.485 37.9653 133.485 37.886V36.668C133.485 36.5887 133.499 36.542 133.527 36.528C133.555 36.5093 133.609 36.5 133.688 36.5H143.376C143.474 36.5 143.535 36.5163 143.558 36.549C143.586 36.5817 143.6 36.6517 143.6 36.759V40.308C143.6 40.4013 143.584 40.4573 143.551 40.476C143.518 40.4947 143.458 40.504 143.369 40.504H142.354C142.247 40.504 142.174 40.4947 142.137 40.476C142.104 40.4527 142.086 40.3873 142.081 40.28C142.076 39.762 142.016 39.342 141.899 39.02C141.782 38.698 141.582 38.4623 141.297 38.313C141.012 38.1637 140.609 38.089 140.086 38.089H138.07C137.963 38.089 137.888 38.103 137.846 38.131C137.809 38.159 137.79 38.2243 137.79 38.327V41.071C137.79 41.127 137.797 41.1667 137.811 41.19C137.83 41.2087 137.862 41.218 137.909 41.218H138.203C138.609 41.218 138.945 41.0873 139.211 40.826C139.477 40.56 139.626 40.224 139.659 39.818C139.668 39.7527 139.673 39.7083 139.673 39.685C139.678 39.6617 139.717 39.65 139.792 39.65H140.639C140.714 39.65 140.76 39.664 140.779 39.692C140.802 39.7153 140.814 39.7667 140.814 39.846V43.976C140.814 44.0553 140.802 44.109 140.779 44.137C140.756 44.165 140.7 44.179 140.611 44.179H139.904C139.811 44.179 139.75 44.1697 139.722 44.151C139.694 44.1323 139.675 44.081 139.666 43.997C139.629 43.577 139.475 43.2293 139.204 42.954C138.938 42.6787 138.609 42.541 138.217 42.541H137.909C137.853 42.541 137.818 42.555 137.804 42.583C137.795 42.6063 137.79 42.6367 137.79 42.674V45.096C137.79 45.2267 137.806 45.313 137.839 45.355C137.876 45.3923 137.963 45.411 138.098 45.411H139.33C139.442 45.411 139.51 45.4203 139.533 45.439C139.556 45.4577 139.568 45.523 139.568 45.635V46.706C139.568 46.832 139.549 46.9137 139.512 46.951C139.479 46.9837 139.398 47 139.267 47H133.737C133.634 47 133.567 46.9907 133.534 46.972C133.501 46.9487 133.485 46.8857 133.485 46.783V45.593C133.485 45.5043 133.501 45.453 133.534 45.439C133.571 45.4203 133.637 45.411 133.73 45.411H134.752C134.878 45.411 134.955 45.3923 134.983 45.355C135.011 45.3177 135.025 45.236 135.025 45.11V38.327C135.025 38.2243 135.009 38.159 134.976 38.131C134.943 38.103 134.88 38.089 134.787 38.089ZM144.549 41.75C144.549 40.952 144.678 40.2193 144.934 39.552C145.191 38.8847 145.562 38.3037 146.047 37.809C146.537 37.3143 147.132 36.9317 147.832 36.661C148.532 36.3903 149.323 36.255 150.205 36.255C151.087 36.255 151.876 36.3903 152.571 36.661C153.271 36.9317 153.864 37.3143 154.349 37.809C154.839 38.3037 155.213 38.8847 155.469 39.552C155.726 40.2193 155.854 40.952 155.854 41.75C155.854 42.548 155.719 43.2807 155.448 43.948C155.182 44.6153 154.8 45.1963 154.3 45.691C153.801 46.1857 153.206 46.5683 152.515 46.839C151.825 47.1097 151.055 47.245 150.205 47.245C149.323 47.245 148.532 47.1097 147.832 46.839C147.132 46.5683 146.537 46.1857 146.047 45.691C145.562 45.1963 145.191 44.6153 144.934 43.948C144.678 43.2807 144.549 42.548 144.549 41.75ZM147.643 41.75C147.643 42.3333 147.69 42.87 147.783 43.36C147.881 43.8453 148.033 44.2653 148.238 44.62C148.444 44.97 148.71 45.243 149.036 45.439C149.363 45.6303 149.753 45.726 150.205 45.726C150.695 45.726 151.104 45.6303 151.43 45.439C151.762 45.243 152.023 44.97 152.214 44.62C152.41 44.2653 152.55 43.8453 152.634 43.36C152.718 42.87 152.76 42.3333 152.76 41.75C152.76 41.162 152.711 40.6253 152.613 40.14C152.52 39.6547 152.371 39.237 152.165 38.887C151.96 38.5323 151.696 38.2593 151.374 38.068C151.052 37.872 150.663 37.774 150.205 37.774C149.753 37.774 149.363 37.872 149.036 38.068C148.71 38.2593 148.444 38.5323 148.238 38.887C148.033 39.237 147.881 39.6547 147.783 40.14C147.69 40.6253 147.643 41.162 147.643 41.75ZM157.788 38.089H156.787C156.685 38.089 156.619 38.0727 156.591 38.04C156.563 38.0073 156.549 37.9373 156.549 37.83V36.829C156.549 36.689 156.563 36.6003 156.591 36.563C156.624 36.521 156.71 36.5 156.85 36.5H162.268C162.399 36.5 162.485 36.5163 162.527 36.549C162.574 36.5817 162.597 36.668 162.597 36.808V37.781C162.597 37.921 162.574 38.0073 162.527 38.04C162.481 38.0727 162.392 38.089 162.261 38.089H161.183C161.053 38.089 160.964 38.103 160.917 38.131C160.875 38.159 160.854 38.2383 160.854 38.369V45.061C160.854 45.2103 160.871 45.306 160.903 45.348C160.941 45.39 161.034 45.411 161.183 45.411H162.569C163.12 45.411 163.573 45.3317 163.927 45.173C164.287 45.0097 164.557 44.739 164.739 44.361C164.926 43.9783 165.029 43.4533 165.047 42.786C165.052 42.6647 165.064 42.5877 165.082 42.555C165.101 42.5223 165.173 42.506 165.299 42.506H166.188C166.3 42.506 166.375 42.52 166.412 42.548C166.45 42.5713 166.468 42.6367 166.468 42.744V46.65C166.468 46.7947 166.452 46.8903 166.419 46.937C166.391 46.979 166.305 47 166.16 47H156.857C156.727 47 156.643 46.9837 156.605 46.951C156.568 46.9137 156.549 46.825 156.549 46.685V45.656C156.549 45.5627 156.559 45.4997 156.577 45.467C156.601 45.4297 156.657 45.411 156.745 45.411H157.725C157.875 45.411 157.973 45.3923 158.019 45.355C158.066 45.313 158.089 45.215 158.089 45.061V38.418C158.089 38.2827 158.073 38.194 158.04 38.152C158.008 38.11 157.924 38.089 157.788 38.089ZM171.832 38.32V45.208C171.832 45.348 171.853 45.4343 171.895 45.467C171.942 45.4997 172.035 45.516 172.175 45.516H173.323C173.426 45.516 173.498 45.53 173.54 45.558C173.587 45.5813 173.61 45.6443 173.61 45.747V46.685C173.61 46.825 173.589 46.9137 173.547 46.951C173.51 46.9837 173.421 47 173.281 47H167.751C167.611 47 167.52 46.979 167.478 46.937C167.441 46.8903 167.422 46.7947 167.422 46.65V45.817C167.422 45.6817 167.448 45.5977 167.499 45.565C167.55 45.5323 167.648 45.516 167.793 45.516H168.696C168.827 45.516 168.92 45.4973 168.976 45.46C169.037 45.4227 169.067 45.3293 169.067 45.18V38.327C169.067 38.1917 169.053 38.1007 169.025 38.054C168.997 38.0073 168.915 37.984 168.78 37.984H167.758C167.627 37.984 167.539 37.9677 167.492 37.935C167.445 37.9023 167.422 37.8183 167.422 37.683V36.843C167.422 36.6937 167.438 36.6003 167.471 36.563C167.504 36.521 167.592 36.5 167.737 36.5H173.267C173.421 36.5 173.517 36.5233 173.554 36.57C173.591 36.612 173.61 36.7053 173.61 36.85V37.634C173.61 37.788 173.587 37.886 173.54 37.928C173.498 37.9653 173.405 37.984 173.26 37.984H172.154C172.014 37.984 171.925 38.005 171.888 38.047C171.851 38.089 171.832 38.18 171.832 38.32ZM174.313 41.75C174.313 40.952 174.441 40.2193 174.698 39.552C174.955 38.8847 175.326 38.3037 175.811 37.809C176.301 37.3143 176.896 36.9317 177.596 36.661C178.296 36.3903 179.087 36.255 179.969 36.255C180.851 36.255 181.64 36.3903 182.335 36.661C183.035 36.9317 183.628 37.3143 184.113 37.809C184.603 38.3037 184.976 38.8847 185.233 39.552C185.49 40.2193 185.618 40.952 185.618 41.75C185.618 42.548 185.483 43.2807 185.212 43.948C184.946 44.6153 184.563 45.1963 184.064 45.691C183.565 46.1857 182.97 46.5683 182.279 46.839C181.588 47.1097 180.818 47.245 179.969 47.245C179.087 47.245 178.296 47.1097 177.596 46.839C176.896 46.5683 176.301 46.1857 175.811 45.691C175.326 45.1963 174.955 44.6153 174.698 43.948C174.441 43.2807 174.313 42.548 174.313 41.75ZM177.407 41.75C177.407 42.3333 177.454 42.87 177.547 43.36C177.645 43.8453 177.797 44.2653 178.002 44.62C178.207 44.97 178.473 45.243 178.8 45.439C179.127 45.6303 179.516 45.726 179.969 45.726C180.459 45.726 180.867 45.6303 181.194 45.439C181.525 45.243 181.787 44.97 181.978 44.62C182.174 44.2653 182.314 43.8453 182.398 43.36C182.482 42.87 182.524 42.3333 182.524 41.75C182.524 41.162 182.475 40.6253 182.377 40.14C182.284 39.6547 182.134 39.237 181.929 38.887C181.724 38.5323 181.46 38.2593 181.138 38.068C180.816 37.872 180.426 37.774 179.969 37.774C179.516 37.774 179.127 37.872 178.8 38.068C178.473 38.2593 178.207 38.5323 178.002 38.887C177.797 39.237 177.645 39.6547 177.547 40.14C177.454 40.6253 177.407 41.162 177.407 41.75Z" fill="white"/>
<rect x="1.41421" width="7" height="7" transform="matrix(0.707107 0.707107 0.707107 -0.707107 8.41421 36.8701)" stroke="url(#paint0_linear_418_257)" stroke-width="2"/>
<rect x="1.41421" width="7" height="7" transform="matrix(0.707107 0.707107 0.707107 -0.707107 44.4142 37.1123)" stroke="url(#paint1_linear_418_257)" stroke-width="2"/>
<rect x="2.12132" width="23.5" height="23" transform="matrix(0.707107 0.707107 0.707107 -0.707107 14.6213 16.8848)" stroke="url(#paint2_linear_418_257)" stroke-width="3"/>
<rect x="2.12132" width="17" height="17" transform="matrix(0.707107 0.707107 0.707107 -0.707107 0.62132 36.127)" stroke="url(#paint3_linear_418_257)" stroke-width="3"/>
<rect x="2.12132" width="11" height="11" transform="matrix(0.707107 0.707107 0.707107 -0.707107 23.6213 17.3701)" stroke="url(#paint4_linear_418_257)" stroke-width="3"/>
<rect x="2.12132" width="11" height="11" transform="matrix(0.707107 0.707107 0.707107 -0.707107 22.6213 53.3701)" stroke="url(#paint5_linear_418_257)" stroke-width="3"/>
<defs>
<linearGradient id="paint0_linear_418_257" x1="4.5" y1="0" x2="4.5" y2="9" gradientUnits="userSpaceOnUse">
<stop stop-color="#DD6C30"/>
<stop offset="0.5" stop-color="#E4864F"/>
<stop offset="1" stop-color="#FBB773"/>
</linearGradient>
<linearGradient id="paint1_linear_418_257" x1="4.5" y1="0" x2="4.5" y2="9" gradientUnits="userSpaceOnUse">
<stop stop-color="#DD6C30"/>
<stop offset="0.5" stop-color="#E4864F"/>
<stop offset="1" stop-color="#FBB773"/>
</linearGradient>
<linearGradient id="paint2_linear_418_257" x1="13.25" y1="0" x2="13.25" y2="26" gradientUnits="userSpaceOnUse">
<stop stop-color="#DD6C30"/>
<stop offset="0.5" stop-color="#E4864F"/>
<stop offset="1" stop-color="#FBB773"/>
</linearGradient>
<linearGradient id="paint3_linear_418_257" x1="10" y1="0" x2="10" y2="20" gradientUnits="userSpaceOnUse">
<stop stop-color="#DD6C30"/>
<stop offset="0.5" stop-color="#E4864F"/>
<stop offset="1" stop-color="#FBB773"/>
</linearGradient>
<linearGradient id="paint4_linear_418_257" x1="7" y1="0" x2="7" y2="14" gradientUnits="userSpaceOnUse">
<stop stop-color="#DD6C30"/>
<stop offset="0.5" stop-color="#E4864F"/>
<stop offset="1" stop-color="#FBB773"/>
</linearGradient>
<linearGradient id="paint5_linear_418_257" x1="7" y1="0" x2="7" y2="14" gradientUnits="userSpaceOnUse">
<stop stop-color="#DD6C30"/>
<stop offset="0.5" stop-color="#E4864F"/>
<stop offset="1" stop-color="#FBB773"/>
</linearGradient>
</defs>
</svg>
