<svg width="171" height="65" viewBox="0 0 171 65" fill="none" xmlns="http://www.w3.org/2000/svg">
<path d="M74.963 21.32V28.208C74.963 28.348 74.984 28.4343 75.026 28.467C75.0727 28.4997 75.166 28.516 75.306 28.516H76.454C76.5567 28.516 76.629 28.53 76.671 28.558C76.7177 28.5813 76.741 28.6443 76.741 28.747V29.685C76.741 29.825 76.72 29.9137 76.678 29.951C76.6407 29.9837 76.552 30 76.412 30H70.882C70.742 30 70.651 29.979 70.609 29.937C70.5717 29.8903 70.553 29.7947 70.553 29.65V28.817C70.553 28.6817 70.5787 28.5977 70.63 28.565C70.6813 28.5323 70.7793 28.516 70.924 28.516H71.827C71.9577 28.516 72.051 28.4973 72.107 28.46C72.1677 28.4227 72.198 28.3293 72.198 28.18V21.327C72.198 21.1917 72.184 21.1007 72.156 21.054C72.128 21.0073 72.0463 20.984 71.911 20.984H70.889C70.7583 20.984 70.6697 20.9677 70.623 20.935C70.5763 20.9023 70.553 20.8183 70.553 20.683V19.843C70.553 19.6937 70.5693 19.6003 70.602 19.563C70.6347 19.521 70.7233 19.5 70.868 19.5H76.398C76.552 19.5 76.6477 19.5233 76.685 19.57C76.7223 19.612 76.741 19.7053 76.741 19.85V20.634C76.741 20.788 76.7177 20.886 76.671 20.928C76.629 20.9653 76.5357 20.984 76.391 20.984H75.285C75.145 20.984 75.0563 21.005 75.019 21.047C74.9817 21.089 74.963 21.18 74.963 21.32ZM78.8128 21.089H78.0008C77.8841 21.089 77.8048 21.075 77.7628 21.047C77.7254 21.0143 77.7068 20.9443 77.7068 20.837V19.913C77.7068 19.731 77.7301 19.6167 77.7768 19.57C77.8234 19.5233 77.9331 19.5 78.1058 19.5H81.0948C81.3561 19.5 81.5404 19.521 81.6478 19.563C81.7551 19.6003 81.8648 19.6843 81.9768 19.815L86.6948 25.24C86.8021 25.3613 86.8861 25.4127 86.9468 25.394C87.0121 25.3707 87.0448 25.2073 87.0448 24.904V21.376C87.0448 21.2593 87.0284 21.1823 86.9958 21.145C86.9678 21.1077 86.8978 21.089 86.7858 21.089H85.8688C85.7288 21.089 85.6331 21.068 85.5818 21.026C85.5304 20.984 85.5048 20.893 85.5048 20.753V19.871C85.5048 19.7077 85.5304 19.605 85.5818 19.563C85.6378 19.521 85.7428 19.5 85.8968 19.5H89.8588C89.9521 19.5 90.0221 19.514 90.0688 19.542C90.1154 19.5653 90.1388 19.6283 90.1388 19.731V20.683C90.1388 20.865 90.1154 20.9793 90.0688 21.026C90.0221 21.068 89.9054 21.089 89.7188 21.089H88.9908C88.8554 21.089 88.7668 21.1147 88.7248 21.166C88.6874 21.2127 88.6688 21.3037 88.6688 21.439V29.902C88.6688 30.0187 88.6501 30.0957 88.6128 30.133C88.5801 30.1703 88.5031 30.189 88.3818 30.189H87.6328C87.4508 30.189 87.3224 30.1633 87.2478 30.112C87.1731 30.0653 87.0961 29.9953 87.0168 29.902L81.1508 22.972C81.0388 22.8367 80.9524 22.7923 80.8918 22.839C80.8358 22.881 80.8078 23.0677 80.8078 23.399V28.047C80.8078 28.201 80.8264 28.3013 80.8638 28.348C80.9011 28.39 80.9968 28.411 81.1508 28.411H82.1728C82.2708 28.411 82.3361 28.4297 82.3688 28.467C82.4014 28.5043 82.4178 28.5767 82.4178 28.684V29.671C82.4178 29.8297 82.3781 29.9253 82.2988 29.958C82.2241 29.986 82.1144 30 81.9698 30H78.1268C77.9494 30 77.8351 29.979 77.7838 29.937C77.7324 29.895 77.7068 29.783 77.7068 29.601V28.74C77.7068 28.5767 77.7348 28.481 77.7908 28.453C77.8468 28.425 77.9518 28.411 78.1058 28.411H78.8128C78.9761 28.411 79.0764 28.3877 79.1138 28.341C79.1558 28.2943 79.1768 28.1893 79.1768 28.026V21.446C79.1768 21.2687 79.1581 21.166 79.1208 21.138C79.0881 21.1053 78.9854 21.089 78.8128 21.089ZM97.7911 26.864L100.108 21.425C100.169 21.285 100.185 21.194 100.157 21.152C100.129 21.11 100.019 21.089 99.8281 21.089H99.2751C99.1351 21.089 99.0464 21.0727 99.0091 21.04C98.9718 21.0073 98.9531 20.9257 98.9531 20.795V19.878C98.9531 19.7287 98.9671 19.6283 98.9951 19.577C99.0278 19.5257 99.1211 19.5 99.2751 19.5H102.992C103.137 19.5 103.237 19.521 103.293 19.563C103.354 19.6003 103.384 19.6983 103.384 19.857V20.809C103.384 20.9163 103.363 20.991 103.321 21.033C103.279 21.0703 103.202 21.089 103.09 21.089H102.376C102.194 21.089 102.075 21.117 102.019 21.173C101.963 21.2243 101.909 21.3107 101.858 21.432L98.2391 29.783C98.1971 29.8857 98.1598 29.9673 98.1271 30.028C98.0944 30.0933 98.0431 30.14 97.9731 30.168C97.9078 30.196 97.7958 30.21 97.6371 30.21H96.2861C96.0668 30.21 95.9221 30.1867 95.8521 30.14C95.7821 30.098 95.7168 30.0047 95.6561 29.86L92.0511 21.369C91.9998 21.243 91.9508 21.166 91.9041 21.138C91.8574 21.1053 91.7408 21.089 91.5541 21.089H90.6441C90.4948 21.089 90.4038 21.0633 90.3711 21.012C90.3384 20.956 90.3221 20.8557 90.3221 20.711V19.822C90.3221 19.668 90.3431 19.577 90.3851 19.549C90.4318 19.5163 90.5321 19.5 90.6861 19.5H96.2861C96.4074 19.5 96.4868 19.5257 96.5241 19.577C96.5614 19.6237 96.5801 19.7123 96.5801 19.843V20.76C96.5801 20.9047 96.5591 20.9957 96.5171 21.033C96.4798 21.0703 96.3864 21.089 96.2371 21.089H95.3621C95.1988 21.089 95.1008 21.1147 95.0681 21.166C95.0354 21.2127 95.0424 21.2943 95.0891 21.411L97.0001 26.262C97.0794 26.4533 97.1448 26.6353 97.1961 26.808C97.2521 26.9807 97.3058 27.1137 97.3571 27.207C97.4131 27.2957 97.4738 27.3213 97.5391 27.284C97.6044 27.242 97.6884 27.102 97.7911 26.864ZM104.949 21.089H104.032C103.897 21.089 103.813 21.068 103.78 21.026C103.747 20.984 103.731 20.8977 103.731 20.767V19.808C103.731 19.6633 103.754 19.577 103.801 19.549C103.852 19.5163 103.946 19.5 104.081 19.5H113.671C113.816 19.5 113.904 19.521 113.937 19.563C113.97 19.605 113.986 19.696 113.986 19.836V23.133C113.986 23.259 113.977 23.336 113.958 23.364C113.944 23.392 113.872 23.406 113.741 23.406H112.691C112.588 23.406 112.525 23.3827 112.502 23.336C112.483 23.2847 112.472 23.2147 112.467 23.126C112.453 22.6267 112.388 22.2277 112.271 21.929C112.154 21.6303 111.954 21.4157 111.669 21.285C111.384 21.1543 110.985 21.089 110.472 21.089H108.414C108.279 21.089 108.181 21.1077 108.12 21.145C108.064 21.1777 108.036 21.2663 108.036 21.411V23.686C108.036 23.8353 108.05 23.9357 108.078 23.987C108.111 24.0383 108.183 24.064 108.295 24.064H108.575C108.986 24.064 109.305 23.938 109.534 23.686C109.767 23.4293 109.91 23.126 109.961 22.776C109.975 22.6733 109.994 22.5987 110.017 22.552C110.04 22.5007 110.099 22.475 110.192 22.475H110.822C110.953 22.475 111.034 22.4937 111.067 22.531C111.104 22.5637 111.123 22.6453 111.123 22.776V26.647C111.123 26.7683 111.107 26.8477 111.074 26.885C111.046 26.9223 110.971 26.941 110.85 26.941H110.234C110.117 26.941 110.045 26.9153 110.017 26.864C109.994 26.808 109.973 26.7217 109.954 26.605C109.921 26.3763 109.842 26.1617 109.716 25.961C109.595 25.7603 109.438 25.5993 109.247 25.478C109.06 25.352 108.85 25.289 108.617 25.289H108.344C108.241 25.289 108.164 25.317 108.113 25.373C108.062 25.429 108.036 25.527 108.036 25.667V28.124C108.036 28.278 108.057 28.3643 108.099 28.383C108.141 28.4017 108.239 28.411 108.393 28.411H110.332C110.929 28.411 111.389 28.3363 111.711 28.187C112.033 28.033 112.259 27.7857 112.39 27.445C112.521 27.0997 112.593 26.6423 112.607 26.073C112.612 25.9143 112.623 25.8163 112.642 25.779C112.665 25.737 112.754 25.716 112.908 25.716H113.853C113.993 25.716 114.072 25.7347 114.091 25.772C114.114 25.8047 114.126 25.8887 114.126 26.024V29.734C114.126 29.8647 114.112 29.9417 114.084 29.965C114.056 29.9883 113.977 30 113.846 30H104.06C103.929 30 103.841 29.993 103.794 29.979C103.752 29.965 103.731 29.888 103.731 29.748V28.628C103.731 28.5113 103.745 28.446 103.773 28.432C103.801 28.418 103.871 28.411 103.983 28.411H104.942C105.096 28.411 105.189 28.397 105.222 28.369C105.255 28.3363 105.271 28.243 105.271 28.089V21.362C105.271 21.236 105.25 21.159 105.208 21.131C105.166 21.103 105.08 21.089 104.949 21.089ZM122.528 22.825C122.453 22.3723 122.276 21.999 121.996 21.705C121.716 21.411 121.382 21.194 120.995 21.054C120.612 20.914 120.222 20.844 119.826 20.844C119.27 20.844 118.853 20.942 118.573 21.138C118.297 21.3293 118.16 21.5767 118.16 21.88C118.16 22.1693 118.269 22.405 118.489 22.587C118.713 22.7643 119.007 22.916 119.371 23.042C119.739 23.1633 120.141 23.2823 120.575 23.399C121.013 23.5157 121.452 23.6533 121.891 23.812C122.329 23.9707 122.731 24.176 123.095 24.428C123.463 24.68 123.757 25.002 123.977 25.394C124.201 25.7813 124.313 26.269 124.313 26.857C124.313 27.6783 124.133 28.3387 123.774 28.838C123.414 29.3373 122.915 29.699 122.276 29.923C121.636 30.147 120.901 30.259 120.071 30.259C119.469 30.259 118.948 30.1727 118.51 30C118.076 29.8273 117.714 29.6103 117.425 29.349C117.289 29.223 117.196 29.1857 117.145 29.237C117.093 29.2837 117.021 29.391 116.928 29.559L116.781 29.881C116.734 29.965 116.68 30.0163 116.62 30.035C116.564 30.0583 116.47 30.07 116.34 30.07H115.64C115.514 30.07 115.423 30.0513 115.367 30.014C115.315 29.9767 115.29 29.8973 115.29 29.776V26.346C115.29 26.2107 115.306 26.122 115.339 26.08C115.371 26.038 115.455 26.017 115.591 26.017H116.417C116.561 26.017 116.641 26.038 116.655 26.08C116.669 26.122 116.683 26.206 116.697 26.332C116.748 26.752 116.9 27.144 117.152 27.508C117.404 27.872 117.74 28.166 118.16 28.39C118.58 28.614 119.067 28.726 119.623 28.726C120.085 28.726 120.467 28.67 120.771 28.558C121.074 28.446 121.298 28.2897 121.443 28.089C121.592 27.8883 121.667 27.662 121.667 27.41C121.667 27.0833 121.557 26.822 121.338 26.626C121.118 26.4253 120.827 26.262 120.463 26.136C120.099 26.0053 119.7 25.8863 119.266 25.779C118.832 25.667 118.395 25.541 117.957 25.401C117.523 25.2563 117.124 25.0673 116.76 24.834C116.4 24.596 116.109 24.2903 115.885 23.917C115.665 23.5437 115.556 23.07 115.556 22.496C115.556 21.9267 115.663 21.4413 115.878 21.04C116.092 20.6387 116.377 20.3097 116.732 20.053C117.086 19.7963 117.485 19.6097 117.929 19.493C118.372 19.3717 118.822 19.311 119.28 19.311C119.788 19.311 120.253 19.3857 120.673 19.535C121.093 19.6797 121.454 19.871 121.758 20.109C121.879 20.2023 121.972 20.249 122.038 20.249C122.108 20.2443 122.187 20.165 122.276 20.011L122.458 19.661C122.495 19.605 122.525 19.5653 122.549 19.542C122.572 19.514 122.635 19.5 122.738 19.5H123.641C123.757 19.5 123.837 19.521 123.879 19.563C123.921 19.6003 123.942 19.6797 123.942 19.801V22.909C123.942 23.0537 123.921 23.1447 123.879 23.182C123.837 23.2193 123.739 23.238 123.585 23.238H122.948C122.747 23.238 122.633 23.21 122.605 23.154C122.581 23.098 122.556 22.9883 122.528 22.825ZM127.346 29.664V28.733C127.346 28.5977 127.367 28.5113 127.409 28.474C127.451 28.432 127.535 28.411 127.661 28.411H128.648C128.83 28.411 128.945 28.3853 128.991 28.334C129.043 28.278 129.068 28.159 129.068 27.977V21.299C129.068 21.201 129.05 21.131 129.012 21.089C128.98 21.0423 128.912 21.019 128.809 21.019H128.55C128.046 21.019 127.654 21.0867 127.374 21.222C127.094 21.3573 126.896 21.5907 126.779 21.922C126.663 22.2533 126.597 22.7177 126.583 23.315C126.579 23.469 126.548 23.5693 126.492 23.616C126.441 23.6627 126.334 23.686 126.17 23.686H125.498C125.368 23.686 125.279 23.6673 125.232 23.63C125.186 23.588 125.162 23.504 125.162 23.378V19.899C125.162 19.745 125.176 19.64 125.204 19.584C125.232 19.528 125.323 19.5 125.477 19.5H135.249C135.366 19.5 135.443 19.5257 135.48 19.577C135.518 19.6237 135.536 19.71 135.536 19.836V23.336C135.536 23.4947 135.511 23.5927 135.459 23.63C135.413 23.6673 135.308 23.686 135.144 23.686H134.493C134.325 23.686 134.22 23.665 134.178 23.623C134.136 23.5763 134.113 23.4737 134.108 23.315C134.094 22.713 134.029 22.2463 133.912 21.915C133.796 21.5837 133.597 21.3527 133.317 21.222C133.042 21.0867 132.652 21.019 132.148 21.019H131.889C131.782 21.019 131.71 21.0423 131.672 21.089C131.64 21.1357 131.623 21.2127 131.623 21.32V27.893C131.623 28.103 131.644 28.243 131.686 28.313C131.733 28.3783 131.859 28.411 132.064 28.411H132.974C133.133 28.411 133.233 28.4367 133.275 28.488C133.322 28.5393 133.345 28.6373 133.345 28.782V29.636C133.345 29.7993 133.317 29.902 133.261 29.944C133.205 29.9813 133.1 30 132.946 30H127.71C127.57 30 127.475 29.9813 127.423 29.944C127.372 29.9067 127.346 29.8133 127.346 29.664ZM141.19 21.32V28.208C141.19 28.348 141.211 28.4343 141.253 28.467C141.299 28.4997 141.393 28.516 141.533 28.516H142.681C142.783 28.516 142.856 28.53 142.898 28.558C142.944 28.5813 142.968 28.6443 142.968 28.747V29.685C142.968 29.825 142.947 29.9137 142.905 29.951C142.867 29.9837 142.779 30 142.639 30H137.109C136.969 30 136.878 29.979 136.836 29.937C136.798 29.8903 136.78 29.7947 136.78 29.65V28.817C136.78 28.6817 136.805 28.5977 136.857 28.565C136.908 28.5323 137.006 28.516 137.151 28.516H138.054C138.184 28.516 138.278 28.4973 138.334 28.46C138.394 28.4227 138.425 28.3293 138.425 28.18V21.327C138.425 21.1917 138.411 21.1007 138.383 21.054C138.355 21.0073 138.273 20.984 138.138 20.984H137.116C136.985 20.984 136.896 20.9677 136.85 20.935C136.803 20.9023 136.78 20.8183 136.78 20.683V19.843C136.78 19.6937 136.796 19.6003 136.829 19.563C136.861 19.521 136.95 19.5 137.095 19.5H142.625C142.779 19.5 142.874 19.5233 142.912 19.57C142.949 19.612 142.968 19.7053 142.968 19.85V20.634C142.968 20.788 142.944 20.886 142.898 20.928C142.856 20.9653 142.762 20.984 142.618 20.984H141.512C141.372 20.984 141.283 21.005 141.246 21.047C141.208 21.089 141.19 21.18 141.19 21.32ZM145.039 21.089H144.227C144.111 21.089 144.031 21.075 143.989 21.047C143.952 21.0143 143.933 20.9443 143.933 20.837V19.913C143.933 19.731 143.957 19.6167 144.003 19.57C144.05 19.5233 144.16 19.5 144.332 19.5H147.321C147.583 19.5 147.767 19.521 147.874 19.563C147.982 19.6003 148.091 19.6843 148.203 19.815L152.921 25.24C153.029 25.3613 153.113 25.4127 153.173 25.394C153.239 25.3707 153.271 25.2073 153.271 24.904V21.376C153.271 21.2593 153.255 21.1823 153.222 21.145C153.194 21.1077 153.124 21.089 153.012 21.089H152.095C151.955 21.089 151.86 21.068 151.808 21.026C151.757 20.984 151.731 20.893 151.731 20.753V19.871C151.731 19.7077 151.757 19.605 151.808 19.563C151.864 19.521 151.969 19.5 152.123 19.5H156.085C156.179 19.5 156.249 19.514 156.295 19.542C156.342 19.5653 156.365 19.6283 156.365 19.731V20.683C156.365 20.865 156.342 20.9793 156.295 21.026C156.249 21.068 156.132 21.089 155.945 21.089H155.217C155.082 21.089 154.993 21.1147 154.951 21.166C154.914 21.2127 154.895 21.3037 154.895 21.439V29.902C154.895 30.0187 154.877 30.0957 154.839 30.133C154.807 30.1703 154.73 30.189 154.608 30.189H153.859C153.677 30.189 153.549 30.1633 153.474 30.112C153.4 30.0653 153.323 29.9953 153.243 29.902L147.377 22.972C147.265 22.8367 147.179 22.7923 147.118 22.839C147.062 22.881 147.034 23.0677 147.034 23.399V28.047C147.034 28.201 147.053 28.3013 147.09 28.348C147.128 28.39 147.223 28.411 147.377 28.411H148.399C148.497 28.411 148.563 28.4297 148.595 28.467C148.628 28.5043 148.644 28.5767 148.644 28.684V29.671C148.644 29.8297 148.605 29.9253 148.525 29.958C148.451 29.986 148.341 30 148.196 30H144.353C144.176 30 144.062 29.979 144.01 29.937C143.959 29.895 143.933 29.783 143.933 29.601V28.74C143.933 28.5767 143.961 28.481 144.017 28.453C144.073 28.425 144.178 28.411 144.332 28.411H145.039C145.203 28.411 145.303 28.3877 145.34 28.341C145.382 28.2943 145.403 28.1893 145.403 28.026V21.446C145.403 21.2687 145.385 21.166 145.347 21.138C145.315 21.1053 145.212 21.089 145.039 21.089ZM163.167 24.204H168.613C168.767 24.204 168.862 24.2227 168.9 24.26C168.942 24.2973 168.963 24.3977 168.963 24.561V25.583C168.963 25.695 168.944 25.765 168.907 25.793C168.869 25.821 168.792 25.835 168.676 25.835H167.815C167.707 25.835 167.637 25.849 167.605 25.877C167.577 25.905 167.563 25.9727 167.563 26.08V27.382C167.563 27.5313 167.551 27.6387 167.528 27.704C167.509 27.7693 167.467 27.844 167.402 27.928C167.224 28.166 166.984 28.4203 166.681 28.691C166.377 28.957 166.018 29.209 165.603 29.447C165.187 29.6803 164.716 29.8717 164.189 30.021C163.666 30.1703 163.092 30.245 162.467 30.245C161.636 30.245 160.871 30.1167 160.171 29.86C159.475 29.5987 158.871 29.2277 158.358 28.747C157.844 28.2617 157.445 27.683 157.161 27.011C156.881 26.3343 156.741 25.5807 156.741 24.75C156.741 23.9707 156.881 23.2473 157.161 22.58C157.441 21.9127 157.833 21.3317 158.337 20.837C158.841 20.3377 159.436 19.9503 160.122 19.675C160.808 19.395 161.557 19.255 162.369 19.255C162.985 19.255 163.524 19.339 163.986 19.507C164.452 19.6703 164.854 19.8897 165.19 20.165C165.288 20.2443 165.362 20.2817 165.414 20.277C165.465 20.2677 165.528 20.207 165.603 20.095L165.883 19.612C165.915 19.556 165.953 19.5163 165.995 19.493C166.037 19.465 166.097 19.451 166.177 19.451H167.031C167.133 19.451 167.206 19.465 167.248 19.493C167.294 19.5163 167.318 19.5793 167.318 19.682V22.79C167.318 22.9207 167.306 23.0187 167.283 23.084C167.259 23.1447 167.18 23.175 167.045 23.175H165.953C165.771 23.175 165.663 23.1517 165.631 23.105C165.603 23.0583 165.563 22.972 165.512 22.846C165.362 22.4353 165.166 22.0737 164.924 21.761C164.686 21.4483 164.382 21.208 164.014 21.04C163.645 20.8673 163.19 20.781 162.649 20.781C162.089 20.781 161.596 20.942 161.172 21.264C160.752 21.586 160.423 22.0433 160.185 22.636C159.951 23.2287 159.835 23.9333 159.835 24.75C159.835 25.5667 159.937 26.2737 160.143 26.871C160.348 27.4683 160.642 27.9327 161.025 28.264C161.412 28.5907 161.881 28.754 162.432 28.754C162.894 28.754 163.269 28.6887 163.559 28.558C163.848 28.4227 164.077 28.25 164.245 28.04C164.417 27.83 164.553 27.613 164.651 27.389C164.688 27.3003 164.716 27.2163 164.735 27.137C164.753 27.0577 164.763 26.9527 164.763 26.822V26.129C164.763 25.9983 164.744 25.9167 164.707 25.884C164.674 25.8513 164.597 25.835 164.476 25.835H163.111C162.966 25.835 162.88 25.8047 162.852 25.744C162.824 25.6833 162.81 25.5853 162.81 25.45V24.533C162.81 24.379 162.833 24.2857 162.88 24.253C162.926 24.2203 163.022 24.204 163.167 24.204ZM71.589 38.089H70.721C70.581 38.089 70.4923 38.0727 70.455 38.04C70.4177 38.0073 70.399 37.921 70.399 37.781V36.836C70.399 36.682 70.4223 36.5887 70.469 36.556C70.5157 36.5187 70.6113 36.5 70.756 36.5H75.985C76.6197 36.5 77.2053 36.5607 77.742 36.682C78.2833 36.7987 78.757 36.983 79.163 37.235C79.569 37.487 79.884 37.8113 80.108 38.208C80.332 38.6047 80.444 39.083 80.444 39.643C80.444 40.1983 80.332 40.6813 80.108 41.092C79.884 41.5027 79.569 41.841 79.163 42.107C78.757 42.3683 78.2833 42.5643 77.742 42.695C77.2053 42.8257 76.6197 42.891 75.985 42.891H75.047C74.8883 42.891 74.7903 42.9143 74.753 42.961C74.7203 43.003 74.704 43.1033 74.704 43.262V45.047C74.704 45.2103 74.725 45.313 74.767 45.355C74.809 45.3923 74.9117 45.411 75.075 45.411H76.16C76.3 45.411 76.3817 45.432 76.405 45.474C76.433 45.516 76.447 45.6047 76.447 45.74V46.622C76.447 46.776 76.433 46.8787 76.405 46.93C76.3817 46.9767 76.2907 47 76.132 47H70.742C70.602 47 70.5087 46.9837 70.462 46.951C70.42 46.9183 70.399 46.8273 70.399 46.678V45.719C70.399 45.5883 70.4153 45.5043 70.448 45.467C70.4807 45.4297 70.5623 45.411 70.693 45.411H71.554C71.736 45.411 71.8457 45.3853 71.883 45.334C71.9203 45.278 71.939 45.1637 71.939 44.991V38.383C71.939 38.243 71.9157 38.159 71.869 38.131C71.827 38.103 71.7337 38.089 71.589 38.089ZM75.012 41.302H75.775C76.293 41.302 76.7037 41.155 77.007 40.861C77.315 40.567 77.469 40.161 77.469 39.643C77.469 39.1203 77.315 38.7307 77.007 38.474C76.7037 38.2173 76.293 38.089 75.775 38.089H74.942C74.83 38.089 74.7623 38.11 74.739 38.152C74.7157 38.194 74.704 38.2733 74.704 38.39V40.994C74.704 41.1293 74.7203 41.2157 74.753 41.253C74.7903 41.2857 74.8767 41.302 75.012 41.302ZM81.3541 41.75C81.3541 40.952 81.4824 40.2193 81.7391 39.552C81.9958 38.8847 82.3668 38.3037 82.8521 37.809C83.3421 37.3143 83.9371 36.9317 84.6371 36.661C85.3371 36.3903 86.1281 36.255 87.0101 36.255C87.8921 36.255 88.6808 36.3903 89.3761 36.661C90.0761 36.9317 90.6688 37.3143 91.1541 37.809C91.6441 38.3037 92.0174 38.8847 92.2741 39.552C92.5308 40.2193 92.6591 40.952 92.6591 41.75C92.6591 42.548 92.5238 43.2807 92.2531 43.948C91.9871 44.6153 91.6044 45.1963 91.1051 45.691C90.6058 46.1857 90.0108 46.5683 89.3201 46.839C88.6294 47.1097 87.8594 47.245 87.0101 47.245C86.1281 47.245 85.3371 47.1097 84.6371 46.839C83.9371 46.5683 83.3421 46.1857 82.8521 45.691C82.3668 45.1963 81.9958 44.6153 81.7391 43.948C81.4824 43.2807 81.3541 42.548 81.3541 41.75ZM84.4481 41.75C84.4481 42.3333 84.4948 42.87 84.5881 43.36C84.6861 43.8453 84.8378 44.2653 85.0431 44.62C85.2484 44.97 85.5144 45.243 85.8411 45.439C86.1678 45.6303 86.5574 45.726 87.0101 45.726C87.5001 45.726 87.9084 45.6303 88.2351 45.439C88.5664 45.243 88.8278 44.97 89.0191 44.62C89.2151 44.2653 89.3551 43.8453 89.4391 43.36C89.5231 42.87 89.5651 42.3333 89.5651 41.75C89.5651 41.162 89.5161 40.6253 89.4181 40.14C89.3248 39.6547 89.1754 39.237 88.9701 38.887C88.7648 38.5323 88.5011 38.2593 88.1791 38.068C87.8571 37.872 87.4674 37.774 87.0101 37.774C86.5574 37.774 86.1678 37.872 85.8411 38.068C85.5144 38.2593 85.2484 38.5323 85.0431 38.887C84.8378 39.237 84.6861 39.6547 84.5881 40.14C84.4948 40.6253 84.4481 41.162 84.4481 41.75ZM105.604 45.551C105.315 46.0457 104.953 46.4517 104.519 46.769C104.09 47.0863 103.527 47.245 102.832 47.245C102.323 47.245 101.92 47.1587 101.621 46.986C101.327 46.8133 101.105 46.5893 100.956 46.314C100.807 46.034 100.697 45.726 100.627 45.39C100.562 45.054 100.501 44.718 100.445 44.382C100.394 44.046 100.317 43.7403 100.214 43.465C100.116 43.185 99.9597 42.9587 99.7451 42.786C99.5351 42.6133 99.2317 42.527 98.8351 42.527H97.9391C97.7991 42.527 97.7174 42.5503 97.6941 42.597C97.6707 42.639 97.6591 42.73 97.6591 42.87V45.138C97.6591 45.2453 97.6707 45.3177 97.6941 45.355C97.7221 45.3923 97.7897 45.411 97.8971 45.411H98.9051C99.0217 45.411 99.0987 45.4297 99.1361 45.467C99.1781 45.5043 99.1991 45.586 99.1991 45.712V46.58C99.1991 46.7527 99.1804 46.867 99.1431 46.923C99.1057 46.9743 99.0007 47 98.8281 47H93.6271C93.5197 47 93.4474 46.986 93.4101 46.958C93.3727 46.9253 93.3541 46.8553 93.3541 46.748V45.698C93.3541 45.5767 93.3704 45.4997 93.4031 45.467C93.4404 45.4297 93.5174 45.411 93.6341 45.411H94.5091C94.6677 45.411 94.7704 45.3923 94.8171 45.355C94.8684 45.313 94.8941 45.215 94.8941 45.061V38.439C94.8941 38.2803 94.8684 38.1823 94.8171 38.145C94.7704 38.1077 94.6724 38.089 94.5231 38.089H93.6551C93.5151 38.089 93.4287 38.0657 93.3961 38.019C93.3681 37.9677 93.3541 37.8743 93.3541 37.739V36.759C93.3541 36.647 93.3727 36.577 93.4101 36.549C93.4474 36.5163 93.5221 36.5 93.6341 36.5H99.5001C100.513 36.5 101.336 36.6143 101.971 36.843C102.61 37.0717 103.077 37.3937 103.371 37.809C103.67 38.2197 103.819 38.7003 103.819 39.251C103.819 39.8157 103.695 40.2917 103.448 40.679C103.201 41.0617 102.776 41.3603 102.174 41.575C102.011 41.6357 101.913 41.6963 101.88 41.757C101.847 41.813 101.917 41.89 102.09 41.988C102.393 42.1513 102.622 42.3427 102.776 42.562C102.935 42.7813 103.049 43.0123 103.119 43.255C103.189 43.4977 103.236 43.7357 103.259 43.969C103.282 44.1977 103.306 44.4077 103.329 44.599C103.357 44.7857 103.404 44.935 103.469 45.047C103.539 45.159 103.658 45.215 103.826 45.215C103.943 45.215 104.057 45.1707 104.169 45.082C104.286 44.9887 104.391 44.8673 104.484 44.718C104.545 44.6153 104.598 44.5593 104.645 44.55C104.692 44.5407 104.766 44.5733 104.869 44.648L105.492 45.082C105.604 45.1613 105.667 45.2337 105.681 45.299C105.695 45.3597 105.669 45.4437 105.604 45.551ZM98.0091 40.973H99.5001C99.7847 40.973 100.039 40.917 100.263 40.805C100.487 40.6883 100.662 40.525 100.788 40.315C100.919 40.1003 100.984 39.8483 100.984 39.559C100.984 39.265 100.919 39.0083 100.788 38.789C100.662 38.5697 100.487 38.3993 100.263 38.278C100.039 38.152 99.7847 38.089 99.5001 38.089H97.9601C97.8201 38.089 97.7337 38.11 97.7011 38.152C97.6731 38.1893 97.6591 38.2803 97.6591 38.425V40.644C97.6591 40.812 97.6754 40.91 97.7081 40.938C97.7454 40.9613 97.8457 40.973 98.0091 40.973ZM108.206 46.664V45.733C108.206 45.5977 108.227 45.5113 108.269 45.474C108.311 45.432 108.395 45.411 108.521 45.411H109.508C109.69 45.411 109.804 45.3853 109.851 45.334C109.902 45.278 109.928 45.159 109.928 44.977V38.299C109.928 38.201 109.909 38.131 109.872 38.089C109.839 38.0423 109.771 38.019 109.669 38.019H109.41C108.906 38.019 108.514 38.0867 108.234 38.222C107.954 38.3573 107.755 38.5907 107.639 38.922C107.522 39.2533 107.457 39.7177 107.443 40.315C107.438 40.469 107.408 40.5693 107.352 40.616C107.3 40.6627 107.193 40.686 107.03 40.686H106.358C106.227 40.686 106.138 40.6673 106.092 40.63C106.045 40.588 106.022 40.504 106.022 40.378V36.899C106.022 36.745 106.036 36.64 106.064 36.584C106.092 36.528 106.183 36.5 106.337 36.5H116.109C116.225 36.5 116.302 36.5257 116.34 36.577C116.377 36.6237 116.396 36.71 116.396 36.836V40.336C116.396 40.4947 116.37 40.5927 116.319 40.63C116.272 40.6673 116.167 40.686 116.004 40.686H115.353C115.185 40.686 115.08 40.665 115.038 40.623C114.996 40.5763 114.972 40.4737 114.968 40.315C114.954 39.713 114.888 39.2463 114.772 38.915C114.655 38.5837 114.457 38.3527 114.177 38.222C113.901 38.0867 113.512 38.019 113.008 38.019H112.749C112.641 38.019 112.569 38.0423 112.532 38.089C112.499 38.1357 112.483 38.2127 112.483 38.32V44.893C112.483 45.103 112.504 45.243 112.546 45.313C112.592 45.3783 112.718 45.411 112.924 45.411H113.834C113.992 45.411 114.093 45.4367 114.135 45.488C114.181 45.5393 114.205 45.6373 114.205 45.782V46.636C114.205 46.7993 114.177 46.902 114.121 46.944C114.065 46.9813 113.96 47 113.806 47H108.57C108.43 47 108.334 46.9813 108.283 46.944C108.231 46.9067 108.206 46.8133 108.206 46.664ZM118.787 38.089H117.653C117.578 38.089 117.532 38.075 117.513 38.047C117.494 38.019 117.485 37.9653 117.485 37.886V36.668C117.485 36.5887 117.499 36.542 117.527 36.528C117.555 36.5093 117.609 36.5 117.688 36.5H127.376C127.474 36.5 127.535 36.5163 127.558 36.549C127.586 36.5817 127.6 36.6517 127.6 36.759V40.308C127.6 40.4013 127.584 40.4573 127.551 40.476C127.518 40.4947 127.458 40.504 127.369 40.504H126.354C126.247 40.504 126.174 40.4947 126.137 40.476C126.104 40.4527 126.086 40.3873 126.081 40.28C126.076 39.762 126.016 39.342 125.899 39.02C125.782 38.698 125.582 38.4623 125.297 38.313C125.012 38.1637 124.609 38.089 124.086 38.089H122.07C121.963 38.089 121.888 38.103 121.846 38.131C121.809 38.159 121.79 38.2243 121.79 38.327V41.071C121.79 41.127 121.797 41.1667 121.811 41.19C121.83 41.2087 121.862 41.218 121.909 41.218H122.203C122.609 41.218 122.945 41.0873 123.211 40.826C123.477 40.56 123.626 40.224 123.659 39.818C123.668 39.7527 123.673 39.7083 123.673 39.685C123.678 39.6617 123.717 39.65 123.792 39.65H124.639C124.714 39.65 124.76 39.664 124.779 39.692C124.802 39.7153 124.814 39.7667 124.814 39.846V43.976C124.814 44.0553 124.802 44.109 124.779 44.137C124.756 44.165 124.7 44.179 124.611 44.179H123.904C123.811 44.179 123.75 44.1697 123.722 44.151C123.694 44.1323 123.675 44.081 123.666 43.997C123.629 43.577 123.475 43.2293 123.204 42.954C122.938 42.6787 122.609 42.541 122.217 42.541H121.909C121.853 42.541 121.818 42.555 121.804 42.583C121.795 42.6063 121.79 42.6367 121.79 42.674V45.096C121.79 45.2267 121.806 45.313 121.839 45.355C121.876 45.3923 121.963 45.411 122.098 45.411H123.33C123.442 45.411 123.51 45.4203 123.533 45.439C123.556 45.4577 123.568 45.523 123.568 45.635V46.706C123.568 46.832 123.549 46.9137 123.512 46.951C123.479 46.9837 123.398 47 123.267 47H117.737C117.634 47 117.567 46.9907 117.534 46.972C117.501 46.9487 117.485 46.8857 117.485 46.783V45.593C117.485 45.5043 117.501 45.453 117.534 45.439C117.571 45.4203 117.637 45.411 117.73 45.411H118.752C118.878 45.411 118.955 45.3923 118.983 45.355C119.011 45.3177 119.025 45.236 119.025 45.11V38.327C119.025 38.2243 119.009 38.159 118.976 38.131C118.943 38.103 118.88 38.089 118.787 38.089ZM128.549 41.75C128.549 40.952 128.678 40.2193 128.934 39.552C129.191 38.8847 129.562 38.3037 130.047 37.809C130.537 37.3143 131.132 36.9317 131.832 36.661C132.532 36.3903 133.323 36.255 134.205 36.255C135.087 36.255 135.876 36.3903 136.571 36.661C137.271 36.9317 137.864 37.3143 138.349 37.809C138.839 38.3037 139.213 38.8847 139.469 39.552C139.726 40.2193 139.854 40.952 139.854 41.75C139.854 42.548 139.719 43.2807 139.448 43.948C139.182 44.6153 138.8 45.1963 138.3 45.691C137.801 46.1857 137.206 46.5683 136.515 46.839C135.825 47.1097 135.055 47.245 134.205 47.245C133.323 47.245 132.532 47.1097 131.832 46.839C131.132 46.5683 130.537 46.1857 130.047 45.691C129.562 45.1963 129.191 44.6153 128.934 43.948C128.678 43.2807 128.549 42.548 128.549 41.75ZM131.643 41.75C131.643 42.3333 131.69 42.87 131.783 43.36C131.881 43.8453 132.033 44.2653 132.238 44.62C132.444 44.97 132.71 45.243 133.036 45.439C133.363 45.6303 133.753 45.726 134.205 45.726C134.695 45.726 135.104 45.6303 135.43 45.439C135.762 45.243 136.023 44.97 136.214 44.62C136.41 44.2653 136.55 43.8453 136.634 43.36C136.718 42.87 136.76 42.3333 136.76 41.75C136.76 41.162 136.711 40.6253 136.613 40.14C136.52 39.6547 136.371 39.237 136.165 38.887C135.96 38.5323 135.696 38.2593 135.374 38.068C135.052 37.872 134.663 37.774 134.205 37.774C133.753 37.774 133.363 37.872 133.036 38.068C132.71 38.2593 132.444 38.5323 132.238 38.887C132.033 39.237 131.881 39.6547 131.783 40.14C131.69 40.6253 131.643 41.162 131.643 41.75ZM141.788 38.089H140.787C140.685 38.089 140.619 38.0727 140.591 38.04C140.563 38.0073 140.549 37.9373 140.549 37.83V36.829C140.549 36.689 140.563 36.6003 140.591 36.563C140.624 36.521 140.71 36.5 140.85 36.5H146.268C146.399 36.5 146.485 36.5163 146.527 36.549C146.574 36.5817 146.597 36.668 146.597 36.808V37.781C146.597 37.921 146.574 38.0073 146.527 38.04C146.481 38.0727 146.392 38.089 146.261 38.089H145.183C145.053 38.089 144.964 38.103 144.917 38.131C144.875 38.159 144.854 38.2383 144.854 38.369V45.061C144.854 45.2103 144.871 45.306 144.903 45.348C144.941 45.39 145.034 45.411 145.183 45.411H146.569C147.12 45.411 147.573 45.3317 147.927 45.173C148.287 45.0097 148.557 44.739 148.739 44.361C148.926 43.9783 149.029 43.4533 149.047 42.786C149.052 42.6647 149.064 42.5877 149.082 42.555C149.101 42.5223 149.173 42.506 149.299 42.506H150.188C150.3 42.506 150.375 42.52 150.412 42.548C150.45 42.5713 150.468 42.6367 150.468 42.744V46.65C150.468 46.7947 150.452 46.8903 150.419 46.937C150.391 46.979 150.305 47 150.16 47H140.857C140.727 47 140.643 46.9837 140.605 46.951C140.568 46.9137 140.549 46.825 140.549 46.685V45.656C140.549 45.5627 140.559 45.4997 140.577 45.467C140.601 45.4297 140.657 45.411 140.745 45.411H141.725C141.875 45.411 141.973 45.3923 142.019 45.355C142.066 45.313 142.089 45.215 142.089 45.061V38.418C142.089 38.2827 142.073 38.194 142.04 38.152C142.008 38.11 141.924 38.089 141.788 38.089ZM155.832 38.32V45.208C155.832 45.348 155.853 45.4343 155.895 45.467C155.942 45.4997 156.035 45.516 156.175 45.516H157.323C157.426 45.516 157.498 45.53 157.54 45.558C157.587 45.5813 157.61 45.6443 157.61 45.747V46.685C157.61 46.825 157.589 46.9137 157.547 46.951C157.51 46.9837 157.421 47 157.281 47H151.751C151.611 47 151.52 46.979 151.478 46.937C151.441 46.8903 151.422 46.7947 151.422 46.65V45.817C151.422 45.6817 151.448 45.5977 151.499 45.565C151.55 45.5323 151.648 45.516 151.793 45.516H152.696C152.827 45.516 152.92 45.4973 152.976 45.46C153.037 45.4227 153.067 45.3293 153.067 45.18V38.327C153.067 38.1917 153.053 38.1007 153.025 38.054C152.997 38.0073 152.915 37.984 152.78 37.984H151.758C151.627 37.984 151.539 37.9677 151.492 37.935C151.445 37.9023 151.422 37.8183 151.422 37.683V36.843C151.422 36.6937 151.438 36.6003 151.471 36.563C151.504 36.521 151.592 36.5 151.737 36.5H157.267C157.421 36.5 157.517 36.5233 157.554 36.57C157.591 36.612 157.61 36.7053 157.61 36.85V37.634C157.61 37.788 157.587 37.886 157.54 37.928C157.498 37.9653 157.405 37.984 157.26 37.984H156.154C156.014 37.984 155.925 38.005 155.888 38.047C155.851 38.089 155.832 38.18 155.832 38.32ZM158.313 41.75C158.313 40.952 158.441 40.2193 158.698 39.552C158.955 38.8847 159.326 38.3037 159.811 37.809C160.301 37.3143 160.896 36.9317 161.596 36.661C162.296 36.3903 163.087 36.255 163.969 36.255C164.851 36.255 165.64 36.3903 166.335 36.661C167.035 36.9317 167.628 37.3143 168.113 37.809C168.603 38.3037 168.976 38.8847 169.233 39.552C169.49 40.2193 169.618 40.952 169.618 41.75C169.618 42.548 169.483 43.2807 169.212 43.948C168.946 44.6153 168.563 45.1963 168.064 45.691C167.565 46.1857 166.97 46.5683 166.279 46.839C165.588 47.1097 164.818 47.245 163.969 47.245C163.087 47.245 162.296 47.1097 161.596 46.839C160.896 46.5683 160.301 46.1857 159.811 45.691C159.326 45.1963 158.955 44.6153 158.698 43.948C158.441 43.2807 158.313 42.548 158.313 41.75ZM161.407 41.75C161.407 42.3333 161.454 42.87 161.547 43.36C161.645 43.8453 161.797 44.2653 162.002 44.62C162.207 44.97 162.473 45.243 162.8 45.439C163.127 45.6303 163.516 45.726 163.969 45.726C164.459 45.726 164.867 45.6303 165.194 45.439C165.525 45.243 165.787 44.97 165.978 44.62C166.174 44.2653 166.314 43.8453 166.398 43.36C166.482 42.87 166.524 42.3333 166.524 41.75C166.524 41.162 166.475 40.6253 166.377 40.14C166.284 39.6547 166.134 39.237 165.929 38.887C165.724 38.5323 165.46 38.2593 165.138 38.068C164.816 37.872 164.426 37.774 163.969 37.774C163.516 37.774 163.127 37.872 162.8 38.068C162.473 38.2593 162.207 38.5323 162.002 38.887C161.797 39.237 161.645 39.6547 161.547 40.14C161.454 40.6253 161.407 41.162 161.407 41.75Z" fill="white"/>
<rect x="1.41421" width="7" height="7" transform="matrix(0.707107 0.707107 0.707107 -0.707107 8.41421 36.8701)" stroke="url(#paint0_linear_390_265)" stroke-width="2"/>
<rect x="1.41421" width="7" height="7" transform="matrix(0.707107 0.707107 0.707107 -0.707107 44.4142 37.1123)" stroke="url(#paint1_linear_390_265)" stroke-width="2"/>
<rect x="2.12132" width="23.5" height="23" transform="matrix(0.707107 0.707107 0.707107 -0.707107 14.6213 16.8848)" stroke="url(#paint2_linear_390_265)" stroke-width="3"/>
<rect x="2.12132" width="17" height="17" transform="matrix(0.707107 0.707107 0.707107 -0.707107 0.62132 36.127)" stroke="url(#paint3_linear_390_265)" stroke-width="3"/>
<rect x="2.12132" width="11" height="11" transform="matrix(0.707107 0.707107 0.707107 -0.707107 23.6213 17.3701)" stroke="url(#paint4_linear_390_265)" stroke-width="3"/>
<rect x="2.12132" width="11" height="11" transform="matrix(0.707107 0.707107 0.707107 -0.707107 22.6213 53.3701)" stroke="url(#paint5_linear_390_265)" stroke-width="3"/>
<defs>
<linearGradient id="paint0_linear_390_265" x1="4.5" y1="0" x2="4.5" y2="9" gradientUnits="userSpaceOnUse">
<stop stop-color="#DD6C30"/>
<stop offset="0.5" stop-color="#E4864F"/>
<stop offset="1" stop-color="#FBB773"/>
</linearGradient>
<linearGradient id="paint1_linear_390_265" x1="4.5" y1="0" x2="4.5" y2="9" gradientUnits="userSpaceOnUse">
<stop stop-color="#DD6C30"/>
<stop offset="0.5" stop-color="#E4864F"/>
<stop offset="1" stop-color="#FBB773"/>
</linearGradient>
<linearGradient id="paint2_linear_390_265" x1="13.25" y1="0" x2="13.25" y2="26" gradientUnits="userSpaceOnUse">
<stop stop-color="#DD6C30"/>
<stop offset="0.5" stop-color="#E4864F"/>
<stop offset="1" stop-color="#FBB773"/>
</linearGradient>
<linearGradient id="paint3_linear_390_265" x1="10" y1="0" x2="10" y2="20" gradientUnits="userSpaceOnUse">
<stop stop-color="#DD6C30"/>
<stop offset="0.5" stop-color="#E4864F"/>
<stop offset="1" stop-color="#FBB773"/>
</linearGradient>
<linearGradient id="paint4_linear_390_265" x1="7" y1="0" x2="7" y2="14" gradientUnits="userSpaceOnUse">
<stop stop-color="#DD6C30"/>
<stop offset="0.5" stop-color="#E4864F"/>
<stop offset="1" stop-color="#FBB773"/>
</linearGradient>
<linearGradient id="paint5_linear_390_265" x1="7" y1="0" x2="7" y2="14" gradientUnits="userSpaceOnUse">
<stop stop-color="#DD6C30"/>
<stop offset="0.5" stop-color="#E4864F"/>
<stop offset="1" stop-color="#FBB773"/>
</linearGradient>
</defs>
</svg>
